<?xml version="1.0" encoding="UTF-8"?>
<svg id="Capa_2" data-name="Capa 2" xmlns="http://www.w3.org/2000/svg" viewBox="0 0 159.57 136.73">
  <g id="Capa_1-2" data-name="Capa 1">
    <g id="vxQnke.tif">
      <path d="m43.46,0c12.67.38,24.14,6.4,32.82,17.88,1.17,1.55,1.93,4.3,3.71,4.25,1.26-.04,2.52-2.6,3.63-4.14,7.06-9.8,16.51-15.88,28.47-17.54,23.22-3.23,44.05,12.49,47.07,35.06,1.83,13.68-2.32,25.45-11.83,35.32-20.13,20.91-40.32,41.75-60.5,62.61-4.25,4.4-9.68,4.39-13.98-.05-20.24-20.91-40.52-41.79-60.67-62.8C-3.48,54.27-4.12,30.42,10.73,13.67,18.88,4.48,29.45.17,43.46,0Zm-1.63,4.88c-11.2.17-20.8,3.88-27.96,12.38C1.07,32.46,1.99,53.03,15.92,67.43c20.17,20.85,40.41,41.63,60.63,62.43,2.62,2.7,4.3,2.73,6.89.05,20.22-20.91,40.5-41.78,60.62-62.79,8.33-8.7,12.19-19.15,10.22-31.24-2.23-13.74-9.9-23.59-22.89-28.46-13.19-4.93-25.8-3.21-37.07,5.75-5.04,4.01-8.31,9.46-12.04,14.53-1.73,2.35-3.39,2.36-5.14,0-1.88-2.54-3.64-5.16-5.53-7.69-7.46-10.01-17.46-15.03-29.77-15.14Z"/>
    </g>
  </g>
</svg>