<?xml version="1.0" encoding="UTF-8"?>
<svg id="Capa_2" data-name="Capa 2" xmlns="http://www.w3.org/2000/svg" viewBox="0 0 159.71 139.31">
  <g id="Capa_1-2" data-name="Capa 1">
    <g id="hyOGbY.tif">
      <path d="m29.8,74.74c-6.91,4.71-12.26,10.44-16.39,17.25-5.62,9.28-8.84,19.27-8.57,30.25.11,4.57,0,9.14.03,13.72.01,1.78-.47,3.36-2.45,3.35-1.98,0-2.46-1.6-2.42-3.38.18-9.61-.67-19.28,1.91-28.76,4.28-15.7,12.73-28.39,26.59-37.2,1.34-.85,1.84-1.81,2.1-3.34,4.26-24.96,21.48-42.03,46.51-46.08,3.1-.5,6.29-.65,9.44-.67,9.98-.08,19.96-.04,29.94-.03,13.73.02,24.05-6.01,31.23-17.59.78-1.26,1.58-2.4,3.25-2.25,1.6.14,2.13,1.39,2.55,2.7,11.61,36.18,7.24,69.97-16.1,100.38-10.96,14.28-25.7,23.3-43.81,25.76-33.7,4.56-60.07-18.42-63.23-48.48-.18-1.73-.36-3.46-.58-5.63ZM149.97,7.44c-.51.73-.68,1.01-.88,1.27-8.7,10.98-20.01,16.29-34.05,16.04-9.89-.18-19.8-.06-29.69-.03-16.14.05-29.32,6.44-39.59,18.82-5.23,6.31-8.33,13.65-9.95,21.68,1.05.27,1.64-.31,2.29-.58,4.16-1.72,8.43-3.2,12.87-3.8,15.23-2.05,30.56-.7,45.85-1.02,1.45-.03,2.73.72,2.78,2.29.05,1.73-1.28,2.37-2.83,2.51-.66.06-1.33.02-2,.02-10.81,0-21.63,0-32.44,0-8.95,0-17.48,1.88-25.55,5.76-1.16.56-2.02,1.11-2.01,2.73.06,11.19,2.76,21.56,9.46,30.66,13.5,18.34,36.4,25.4,58.47,18.02,15.26-5.1,26.96-14.86,35.88-28.03,12.87-19,17.2-40.25,15.94-62.84-.44-7.81-1.93-15.47-4.55-23.49Z"/>
    </g>
  </g>
</svg>