<?xml version="1.0" encoding="UTF-8"?>
<svg id="Capa_2" data-name="Capa 2" xmlns="http://www.w3.org/2000/svg" viewBox="0 0 149.71 139.77">
  <g id="Capa_1-2" data-name="Capa 1">
    <g id="wKsA2y.tif">
      <g>
        <path d="m0,113.31c0-4.99-.01-9.97,0-14.96.02-5.31,2.78-8.39,8.01-8.45,10.48-.11,20.96-.08,31.45,0,3.33.02,5.91,1.51,7.27,4.72,1.41,3.31.24,6.01-2.08,8.36-4.32,4.38-8.65,8.76-13.08,13.03-1.32,1.27-1.17,1.91.17,3.03,40,33.12,95.88,11.07,106.19-35.29.16-.73.25-1.51.59-2.15.63-1.19,1.57-1.89,3.05-1.4,1.39.46,1.74,1.45,1.49,2.74-.59,3.1-1.28,6.18-2.37,9.15-9.77,26.47-28.63,42.44-56.42,46.82-20.81,3.28-39.5-2.72-55.58-16.4-1.54-1.31-2.35-1.36-3.77.14-3.76,3.99-7.71,7.81-11.61,11.67-2.84,2.81-5.72,3.51-8.8,2.11C1.26,134.92-.02,132.23,0,128.76c.03-5.15,0-10.3,0-15.46Zm23.79-18.59c-4.99,0-9.99-.02-14.98,0-3.14.01-3.94.84-3.94,4.02,0,9.89.01,19.79-.02,29.68,0,1.49.03,2.83,1.68,3.51,1.6.65,2.68-.13,3.74-1.19,10.23-10.24,20.47-20.47,30.72-30.69,1.06-1.06,1.86-2.14,1.14-3.73-.67-1.49-1.96-1.6-3.35-1.6-4.99.01-9.99,0-14.98,0Z"/>
        <path d="m149.69,26.27c0,5.07.02,10.14,0,15.21-.02,5.13-2.81,8.22-7.92,8.29-10.48.13-20.97.08-31.46.01-3.44-.02-6.06-1.55-7.41-4.89-1.3-3.24-.15-5.86,2.09-8.14,4.14-4.21,8.3-8.41,12.54-12.51,1.34-1.3,1.62-2.06,0-3.44C78.53-12.37,21.5,9.09,11.33,56.47c-.1.49-.22.98-.38,1.44-.49,1.37-1.44,1.96-2.9,1.65-1.42-.3-1.85-1.27-1.69-2.59.4-3.23,1.2-6.38,2.35-9.4C19.05,20.35,38.67,4.34,67.53.57c20.05-2.62,37.72,3.92,53.05,16.86,1.61,1.36,2.44,1.47,3.94-.12,3.81-4.06,7.87-7.89,11.77-11.87,2.51-2.56,5.4-3.63,8.8-2.2,3.4,1.43,4.66,4.25,4.62,7.82-.05,5.07-.01,10.14-.01,15.21Zm-4.86-.08c0-4.99-.03-9.98.02-14.96.01-1.5-.07-2.83-1.71-3.49-1.6-.64-2.68.17-3.73,1.22-10.23,10.24-20.47,20.47-30.72,30.69-.99.99-1.77,2.01-1.2,3.51.62,1.64,1.97,1.81,3.47,1.8,9.99-.01,19.97,0,29.96-.01,3.12,0,3.91-.84,3.91-4.05.01-4.91,0-9.81,0-14.72Z"/>
      </g>
    </g>
  </g>
</svg>