<?xml version="1.0" encoding="UTF-8"?>
<svg id="Capa_2" data-name="Capa 2" xmlns="http://www.w3.org/2000/svg" viewBox="0 0 140.93 156.69">
  <g id="Capa_1-2" data-name="Capa 1">
    <path d="m70.15,109.08c-5.39,6.97-12.48,11.04-20.79,13.11-6.64,1.66-13.4,1.46-20.13,1.03-7.57-.49-15-1.93-22.24-4.26-5.17-1.67-6.78-4.36-5.49-9.64,3.15-12.98,8.02-25.2,16.34-35.81,5.4-6.89,12.08-11.88,21.04-13.13,1.02-.14,2.06-.23,1.57-1.79-2.98-9.44-1.22-18.43,2.69-27.17,5.12-11.45,12.94-20.91,22.14-29.26,3.22-2.92,6.68-2.85,9.85.12,9.93,9.31,18.4,19.69,23.38,32.58,2.93,7.6,3.82,15.3,1.45,23.2-.43,1.42-.25,2.1,1.36,2.32,8.89,1.2,15.55,6.27,20.91,12.96,8.7,10.87,13.48,23.62,16.52,37.06.93,4.1-.96,6.98-5.18,8.39-5.69,1.9-11.52,3.22-17.5,3.91-6.64.76-13.31,1.24-19.93.38-10.31-1.33-19.42-5.18-26-14Zm33.22,9.77c11.34-.69,19.65-1.84,27.77-4.17,3.28-.94,3.6-1.54,2.77-4.83-2.21-8.67-5.35-17.03-9.67-24.82-6.13-11.04-14.15-19.83-28.02-20.53-2.54-.13-3.34-1.84-2.2-4.27,2.71-5.75,3.02-11.67,1.68-17.8-3.37-15.32-13.09-26.47-24.09-36.78-1.12-1.05-2.3-.9-3.32.12-8.5,8.52-16.68,17.29-21.38,28.63-3.56,8.59-4.97,17.23-.57,26.06,1.11,2.21.08,3.69-2.38,4.05-1.56.23-3.15.3-4.71.56-8.19,1.39-13.85,6.62-18.75,12.78-7.48,9.4-11.05,20.59-14.09,31.97-.91,3.41-.59,4.02,2.92,4.93,10.85,2.8,21.83,4.78,33.08,3.68,10.67-1.04,19.85-4.88,25.42-14.83,1.34-2.39,3.3-2.28,4.75.17,2.77,4.7,6.37,8.64,11.34,10.94,7.07,3.28,14.62,4.37,19.47,4.15Z"/>
    <path d="m21.38,58.57q-3.86,3.45-7.27.22c-5.35-5.08-10.11-10.6-13.22-17.39-2.03-4.43-.59-7.17,4.23-7.65,8.72-.87,17.07.89,25.17,3.94,2.49.94.54,2.94.4,4.29-.16,1.6-1.47.31-2.11.07-6.77-2.59-13.72-4.06-20.99-3.66-2.52.14-2.62.33-1.44,2.6,3.65,7,8.95,12.58,15.22,17.58Z"/>
    <path d="m130.28,38.35c-6.26,0-12.13,1.81-17.98,3.79-.63.21-2,1.47-2.11-.16-.1-1.4-2.17-3.38.63-4.43,8.22-3.07,16.68-4.49,25.46-3.71,3.72.33,5.59,3.16,4.17,6.49-3.51,8.22-9.13,14.85-15.92,20.51-1.93,1.61-2.95-.7-4.06-1.6-1.22-.99.37-1.49.9-1.95,5.23-4.6,9.81-9.72,13.14-15.88,1.5-2.79,1.43-2.91-1.74-3.04-.83-.03-1.66,0-2.5-.01Z"/>
    <path d="m79.6,128.09c5.4,2.43,4.76,1.13,3.41,6.49-1.7,6.73-4.44,13.05-8.05,18.99-2.53,4.16-6.32,4.15-8.99.08-4.17-6.34-6.7-13.31-8.56-20.62-.59-2.34-.27-3.63,2.14-4.19.55-.13,1.05-.46,1.75-.79.99,5.62,2.74,10.87,5,15.95,1.13,2.54,2.01,5.25,4.23,7.15,1.97-1.99,2.96-4.55,4.06-7.04,2.24-5.11,4.05-10.37,5.02-16.01Z"/>
    <path d="m55.53,73.45c-.04-8.23,6.68-14.96,14.93-14.96,8.25,0,14.97,6.74,14.92,14.96-.04,8.14-6.58,14.69-14.8,14.83-8.17.14-15.01-6.6-15.05-14.84Zm25-.15c-.02-5.85-4.2-9.98-10.1-9.97-5.88,0-10.05,4.16-10.05,10.02,0,5.99,4.2,10.14,10.23,10.09,5.84-.05,9.94-4.25,9.93-10.14Z"/>
  </g>
</svg>