<?xml version="1.0" encoding="UTF-8"?>
<svg id="Capa_2" data-name="Capa 2" xmlns="http://www.w3.org/2000/svg" xmlns:xlink="http://www.w3.org/1999/xlink" viewBox="0 0 297.26 323.01">
  <defs>
    <style>
      .cls-1 {
        fill: #010101;
        stroke: #fff;
      }

      .cls-1, .cls-2, .cls-3, .cls-4, .cls-5, .cls-6, .cls-7, .cls-8, .cls-9, .cls-10, .cls-11, .cls-12, .cls-13, .cls-14 {
        stroke-miterlimit: 10;
      }

      .cls-1, .cls-2, .cls-3, .cls-4, .cls-5, .cls-6, .cls-7, .cls-8, .cls-9, .cls-10, .cls-12, .cls-13 {
        stroke-width: .47px;
      }

      .cls-15 {
        fill: url(#Degradado_sin_nombre_4-2);
      }

      .cls-16 {
        fill: url(#Degradado_sin_nombre_4-3);
      }

      .cls-17 {
        fill: url(#Degradado_sin_nombre_4-8);
      }

      .cls-18 {
        fill: url(#Degradado_sin_nombre_4-4);
      }

      .cls-2 {
        fill: #baa21f;
      }

      .cls-2, .cls-3, .cls-4, .cls-5, .cls-6, .cls-7, .cls-8, .cls-9, .cls-10, .cls-11, .cls-12 {
        stroke: #aba76f;
      }

      .cls-3 {
        fill: url(#Degradado_sin_nombre_4-12);
      }

      .cls-4 {
        fill: url(#Degradado_sin_nombre_4-13);
      }

      .cls-5 {
        fill: url(#Degradado_sin_nombre_4-10);
      }

      .cls-6 {
        fill: url(#Degradado_sin_nombre_4-11);
      }

      .cls-7 {
        fill: url(#Degradado_sin_nombre_4-9);
      }

      .cls-8 {
        fill: url(#Degradado_sin_nombre_4-7);
      }

      .cls-9 {
        fill: url(#Degradado_sin_nombre_4-5);
      }

      .cls-10 {
        fill: url(#Degradado_sin_nombre_4-6);
      }

      .cls-19 {
        fill: url(#Degradado_sin_nombre_4-111);
      }

      .cls-20 {
        fill: url(#Degradado_sin_nombre_4-114);
      }

      .cls-21 {
        fill: url(#Degradado_sin_nombre_4-113);
      }

      .cls-22 {
        fill: url(#Degradado_sin_nombre_4-109);
      }

      .cls-23 {
        fill: url(#Degradado_sin_nombre_4-103);
      }

      .cls-24 {
        fill: url(#Degradado_sin_nombre_4-104);
      }

      .cls-25 {
        fill: url(#Degradado_sin_nombre_4-101);
      }

      .cls-26 {
        fill: url(#Degradado_sin_nombre_4-102);
      }

      .cls-27 {
        fill: url(#Degradado_sin_nombre_4-100);
      }

      .cls-28 {
        fill: url(#Degradado_sin_nombre_4-108);
      }

      .cls-29 {
        fill: url(#Degradado_sin_nombre_4-106);
      }

      .cls-30 {
        fill: url(#Degradado_sin_nombre_4-105);
      }

      .cls-31 {
        fill: url(#Degradado_sin_nombre_4-107);
      }

      .cls-32 {
        fill: url(#Degradado_sin_nombre_4-110);
      }

      .cls-33 {
        fill: url(#Degradado_sin_nombre_4-112);
      }

      .cls-34 {
        fill: url(#Degradado_sin_nombre_4);
      }

      .cls-11 {
        stroke-width: .34px;
      }

      .cls-11, .cls-12, .cls-13, .cls-14 {
        fill: none;
      }

      .cls-35 {
        fill: url(#Degradado_sin_nombre_4-26);
      }

      .cls-36 {
        fill: url(#Degradado_sin_nombre_4-27);
      }

      .cls-37 {
        fill: url(#Degradado_sin_nombre_4-28);
      }

      .cls-38 {
        fill: url(#Degradado_sin_nombre_4-29);
      }

      .cls-39 {
        fill: url(#Degradado_sin_nombre_4-58);
      }

      .cls-40 {
        fill: url(#Degradado_sin_nombre_4-51);
      }

      .cls-41 {
        fill: url(#Degradado_sin_nombre_4-52);
      }

      .cls-42 {
        fill: url(#Degradado_sin_nombre_4-59);
      }

      .cls-43 {
        fill: url(#Degradado_sin_nombre_4-54);
      }

      .cls-44 {
        fill: url(#Degradado_sin_nombre_4-57);
      }

      .cls-45 {
        fill: url(#Degradado_sin_nombre_4-55);
      }

      .cls-46 {
        fill: url(#Degradado_sin_nombre_4-50);
      }

      .cls-47 {
        fill: url(#Degradado_sin_nombre_4-53);
      }

      .cls-48 {
        fill: url(#Degradado_sin_nombre_4-56);
      }

      .cls-49 {
        fill: url(#Degradado_sin_nombre_4-83);
      }

      .cls-50 {
        fill: url(#Degradado_sin_nombre_4-84);
      }

      .cls-51 {
        fill: url(#Degradado_sin_nombre_4-81);
      }

      .cls-52 {
        fill: url(#Degradado_sin_nombre_4-82);
      }

      .cls-53 {
        fill: url(#Degradado_sin_nombre_4-89);
      }

      .cls-54 {
        fill: url(#Degradado_sin_nombre_4-87);
      }

      .cls-55 {
        fill: url(#Degradado_sin_nombre_4-88);
      }

      .cls-56 {
        fill: url(#Degradado_sin_nombre_4-85);
      }

      .cls-57 {
        fill: url(#Degradado_sin_nombre_4-86);
      }

      .cls-58 {
        fill: url(#Degradado_sin_nombre_4-80);
      }

      .cls-59 {
        fill: url(#Degradado_sin_nombre_4-78);
      }

      .cls-60 {
        fill: url(#Degradado_sin_nombre_4-77);
      }

      .cls-61 {
        fill: url(#Degradado_sin_nombre_4-79);
      }

      .cls-62 {
        fill: url(#Degradado_sin_nombre_4-74);
      }

      .cls-63 {
        fill: url(#Degradado_sin_nombre_4-73);
      }

      .cls-64 {
        fill: url(#Degradado_sin_nombre_4-76);
      }

      .cls-65 {
        fill: url(#Degradado_sin_nombre_4-75);
      }

      .cls-66 {
        fill: url(#Degradado_sin_nombre_4-71);
      }

      .cls-67 {
        fill: url(#Degradado_sin_nombre_4-72);
      }

      .cls-68 {
        fill: url(#Degradado_sin_nombre_4-70);
      }

      .cls-69 {
        fill: url(#Degradado_sin_nombre_4-67);
      }

      .cls-70 {
        fill: url(#Degradado_sin_nombre_4-69);
      }

      .cls-71 {
        fill: url(#Degradado_sin_nombre_4-68);
      }

      .cls-72 {
        fill: url(#Degradado_sin_nombre_4-65);
      }

      .cls-73 {
        fill: url(#Degradado_sin_nombre_4-60);
      }

      .cls-74 {
        fill: url(#Degradado_sin_nombre_4-62);
      }

      .cls-75 {
        fill: url(#Degradado_sin_nombre_4-64);
      }

      .cls-76 {
        fill: url(#Degradado_sin_nombre_4-61);
      }

      .cls-77 {
        fill: url(#Degradado_sin_nombre_4-66);
      }

      .cls-78 {
        fill: url(#Degradado_sin_nombre_4-63);
      }

      .cls-79 {
        fill: url(#Degradado_sin_nombre_4-40);
      }

      .cls-80 {
        fill: url(#Degradado_sin_nombre_4-41);
      }

      .cls-81 {
        fill: url(#Degradado_sin_nombre_4-46);
      }

      .cls-82 {
        fill: url(#Degradado_sin_nombre_4-44);
      }

      .cls-83 {
        fill: url(#Degradado_sin_nombre_4-42);
      }

      .cls-84 {
        fill: url(#Degradado_sin_nombre_4-45);
      }

      .cls-85 {
        fill: url(#Degradado_sin_nombre_4-22);
      }

      .cls-86 {
        fill: url(#Degradado_sin_nombre_4-23);
      }

      .cls-87 {
        fill: url(#Degradado_sin_nombre_4-24);
      }

      .cls-88 {
        fill: url(#Degradado_sin_nombre_4-25);
      }

      .cls-89 {
        fill: url(#Degradado_sin_nombre_4-21);
      }

      .cls-90 {
        fill: url(#Degradado_sin_nombre_4-20);
      }

      .cls-91 {
        fill: url(#Degradado_sin_nombre_4-16);
      }

      .cls-92 {
        fill: url(#Degradado_sin_nombre_4-15);
      }

      .cls-93 {
        fill: url(#Degradado_sin_nombre_4-14);
      }

      .cls-94 {
        fill: url(#Degradado_sin_nombre_4-19);
      }

      .cls-95 {
        fill: url(#Degradado_sin_nombre_4-18);
      }

      .cls-96 {
        fill: url(#Degradado_sin_nombre_4-17);
      }

      .cls-97 {
        fill: url(#Degradado_sin_nombre_4-47);
      }

      .cls-98 {
        fill: url(#Degradado_sin_nombre_4-43);
      }

      .cls-99 {
        fill: url(#Degradado_sin_nombre_4-48);
      }

      .cls-100 {
        fill: url(#Degradado_sin_nombre_4-49);
      }

      .cls-101 {
        fill: url(#Degradado_sin_nombre_4-30);
      }

      .cls-102 {
        fill: url(#Degradado_sin_nombre_4-35);
      }

      .cls-103 {
        fill: url(#Degradado_sin_nombre_4-34);
      }

      .cls-104 {
        fill: url(#Degradado_sin_nombre_4-31);
      }

      .cls-105 {
        fill: url(#Degradado_sin_nombre_4-37);
      }

      .cls-106 {
        fill: url(#Degradado_sin_nombre_4-36);
      }

      .cls-107 {
        fill: url(#Degradado_sin_nombre_4-39);
      }

      .cls-108 {
        fill: url(#Degradado_sin_nombre_4-38);
      }

      .cls-109 {
        fill: url(#Degradado_sin_nombre_4-33);
      }

      .cls-110 {
        fill: url(#Degradado_sin_nombre_4-32);
      }

      .cls-111 {
        fill: url(#Degradado_sin_nombre_4-95);
      }

      .cls-112 {
        fill: url(#Degradado_sin_nombre_4-94);
      }

      .cls-113 {
        fill: url(#Degradado_sin_nombre_4-93);
      }

      .cls-114 {
        fill: url(#Degradado_sin_nombre_4-91);
      }

      .cls-115 {
        fill: url(#Degradado_sin_nombre_4-92);
      }

      .cls-116 {
        fill: url(#Degradado_sin_nombre_4-97);
      }

      .cls-117 {
        fill: url(#Degradado_sin_nombre_4-96);
      }

      .cls-118 {
        fill: url(#Degradado_sin_nombre_4-99);
      }

      .cls-119 {
        fill: url(#Degradado_sin_nombre_4-90);
      }

      .cls-13 {
        stroke: #929292;
      }

      .cls-14 {
        stroke: url(#Degradado_sin_nombre_4-98);
        stroke-width: 5.31px;
      }
    </style>
    <radialGradient id="Degradado_sin_nombre_4" data-name="Degradado sin nombre 4" cx="167.38" cy="60.5" fx="167.38" fy="60.5" r="17.08" gradientUnits="userSpaceOnUse">
      <stop offset="0" stop-color="#fff"/>
      <stop offset=".21" stop-color="#ece6c4"/>
      <stop offset=".49" stop-color="#d7c97e"/>
      <stop offset=".73" stop-color="#c7b44a"/>
      <stop offset=".9" stop-color="#bda62a"/>
      <stop offset="1" stop-color="#baa21f"/>
    </radialGradient>
    <radialGradient id="Degradado_sin_nombre_4-2" data-name="Degradado sin nombre 4" cx="109.46" cy="62.35" fx="109.46" fy="62.35" r="17.47" xlink:href="#Degradado_sin_nombre_4"/>
    <radialGradient id="Degradado_sin_nombre_4-3" data-name="Degradado sin nombre 4" cx="88.67" cy="58.08" fx="88.67" fy="58.08" r="6.11" xlink:href="#Degradado_sin_nombre_4"/>
    <radialGradient id="Degradado_sin_nombre_4-4" data-name="Degradado sin nombre 4" cx="138.69" cy="57.68" fx="138.69" fy="57.68" r="7.19" xlink:href="#Degradado_sin_nombre_4"/>
    <radialGradient id="Degradado_sin_nombre_4-5" data-name="Degradado sin nombre 4" cx="146.58" cy="56.75" fx="146.58" fy="56.75" r="4.78" xlink:href="#Degradado_sin_nombre_4"/>
    <radialGradient id="Degradado_sin_nombre_4-6" data-name="Degradado sin nombre 4" cx="130.25" cy="57.2" fx="130.25" fy="57.2" r="4.31" xlink:href="#Degradado_sin_nombre_4"/>
    <radialGradient id="Degradado_sin_nombre_4-7" data-name="Degradado sin nombre 4" cx="138.59" cy="33.43" fx="138.59" fy="33.43" r="8.24" xlink:href="#Degradado_sin_nombre_4"/>
    <radialGradient id="Degradado_sin_nombre_4-8" data-name="Degradado sin nombre 4" cx="138.85" cy="32.58" fx="138.85" fy="32.58" r="14.51" xlink:href="#Degradado_sin_nombre_4"/>
    <radialGradient id="Degradado_sin_nombre_4-9" data-name="Degradado sin nombre 4" cx="138.22" cy="43.86" fx="138.22" fy="43.86" r="4.14" xlink:href="#Degradado_sin_nombre_4"/>
    <radialGradient id="Degradado_sin_nombre_4-10" data-name="Degradado sin nombre 4" cx="138.19" cy="47.48" fx="138.19" fy="47.48" r="4.59" xlink:href="#Degradado_sin_nombre_4"/>
    <radialGradient id="Degradado_sin_nombre_4-11" data-name="Degradado sin nombre 4" cx="138.28" cy="49.09" fx="138.28" fy="49.09" r="5.94" xlink:href="#Degradado_sin_nombre_4"/>
    <radialGradient id="Degradado_sin_nombre_4-12" data-name="Degradado sin nombre 4" cx="138.59" cy="51.26" fx="138.59" fy="51.26" r="9.12" xlink:href="#Degradado_sin_nombre_4"/>
    <radialGradient id="Degradado_sin_nombre_4-13" data-name="Degradado sin nombre 4" cx="139.12" cy="63.93" fx="139.12" fy="63.93" r="9.11" xlink:href="#Degradado_sin_nombre_4"/>
    <radialGradient id="Degradado_sin_nombre_4-14" data-name="Degradado sin nombre 4" cx="92.15" cy="45.39" fx="92.15" fy="45.39" r="4.73" xlink:href="#Degradado_sin_nombre_4"/>
    <radialGradient id="Degradado_sin_nombre_4-15" data-name="Degradado sin nombre 4" cx="86.32" cy="45.4" fx="86.32" fy="45.4" r="6.58" xlink:href="#Degradado_sin_nombre_4"/>
    <radialGradient id="Degradado_sin_nombre_4-16" data-name="Degradado sin nombre 4" cx="85.39" cy="49.65" fx="85.39" fy="49.65" r="4.96" xlink:href="#Degradado_sin_nombre_4"/>
    <radialGradient id="Degradado_sin_nombre_4-17" data-name="Degradado sin nombre 4" cx="95.24" cy="67.92" fx="95.24" fy="67.92" r="7.02" xlink:href="#Degradado_sin_nombre_4"/>
    <radialGradient id="Degradado_sin_nombre_4-18" data-name="Degradado sin nombre 4" cx="180.65" cy="75.86" fx="180.65" fy="75.86" r="13.62" xlink:href="#Degradado_sin_nombre_4"/>
    <radialGradient id="Degradado_sin_nombre_4-19" data-name="Degradado sin nombre 4" cx="183.24" cy="75.65" fx="183.24" fy="75.65" r="13.37" xlink:href="#Degradado_sin_nombre_4"/>
    <radialGradient id="Degradado_sin_nombre_4-20" data-name="Degradado sin nombre 4" cx="193.07" cy="45.43" fx="193.07" fy="45.43" r="8" xlink:href="#Degradado_sin_nombre_4"/>
    <radialGradient id="Degradado_sin_nombre_4-21" data-name="Degradado sin nombre 4" cx="194.66" cy="47.01" fx="194.66" fy="47.01" r="7.04" xlink:href="#Degradado_sin_nombre_4"/>
    <radialGradient id="Degradado_sin_nombre_4-22" data-name="Degradado sin nombre 4" cx="139.76" cy="119.6" fx="139.76" fy="119.6" r="39.95" xlink:href="#Degradado_sin_nombre_4"/>
    <radialGradient id="Degradado_sin_nombre_4-23" data-name="Degradado sin nombre 4" cx="128.83" cy="183.38" fx="128.83" fy="183.38" r="36.71" xlink:href="#Degradado_sin_nombre_4"/>
    <radialGradient id="Degradado_sin_nombre_4-24" data-name="Degradado sin nombre 4" cx="25.98" cy="269.34" fx="25.98" fy="269.34" r="32.24" xlink:href="#Degradado_sin_nombre_4"/>
    <radialGradient id="Degradado_sin_nombre_4-25" data-name="Degradado sin nombre 4" cx="79.35" cy="270.18" fx="79.35" fy="270.18" r="21.87" xlink:href="#Degradado_sin_nombre_4"/>
    <radialGradient id="Degradado_sin_nombre_4-26" data-name="Degradado sin nombre 4" cx="116.53" cy="261.83" fx="116.53" fy="261.83" r="22.75" xlink:href="#Degradado_sin_nombre_4"/>
    <radialGradient id="Degradado_sin_nombre_4-27" data-name="Degradado sin nombre 4" cx="153.71" cy="270.18" fx="153.71" fy="270.18" r="21.87" xlink:href="#Degradado_sin_nombre_4"/>
    <radialGradient id="Degradado_sin_nombre_4-28" data-name="Degradado sin nombre 4" cx="200.46" cy="270.47" fx="200.46" fy="270.47" r="21.51" xlink:href="#Degradado_sin_nombre_4"/>
    <radialGradient id="Degradado_sin_nombre_4-29" data-name="Degradado sin nombre 4" cx="250.02" cy="258.68" fx="250.02" fy="258.68" r="29.08" xlink:href="#Degradado_sin_nombre_4"/>
    <radialGradient id="Degradado_sin_nombre_4-30" data-name="Degradado sin nombre 4" cx="205.65" cy="111.07" fx="205.65" fy="111.07" r="8.61" xlink:href="#Degradado_sin_nombre_4"/>
    <radialGradient id="Degradado_sin_nombre_4-31" data-name="Degradado sin nombre 4" cx="218.94" cy="111.02" fx="218.94" fy="111.02" r="2.49" xlink:href="#Degradado_sin_nombre_4"/>
    <radialGradient id="Degradado_sin_nombre_4-32" data-name="Degradado sin nombre 4" cx="220.49" cy="110.94" fx="220.49" fy="110.94" r="2.2" xlink:href="#Degradado_sin_nombre_4"/>
    <radialGradient id="Degradado_sin_nombre_4-33" data-name="Degradado sin nombre 4" cx="229.53" cy="111.04" fx="229.53" fy="111.04" r="6.65" xlink:href="#Degradado_sin_nombre_4"/>
    <radialGradient id="Degradado_sin_nombre_4-34" data-name="Degradado sin nombre 4" cx="228.23" cy="110.89" fx="228.23" fy="110.89" r="5.04" xlink:href="#Degradado_sin_nombre_4"/>
    <radialGradient id="Degradado_sin_nombre_4-35" data-name="Degradado sin nombre 4" cx="224.13" cy="105.69" fx="224.13" fy="105.69" r="3.61" xlink:href="#Degradado_sin_nombre_4"/>
    <radialGradient id="Degradado_sin_nombre_4-36" data-name="Degradado sin nombre 4" cx="224.13" cy="116.43" fx="224.13" fy="116.43" r="3.61" xlink:href="#Degradado_sin_nombre_4"/>
    <radialGradient id="Degradado_sin_nombre_4-37" data-name="Degradado sin nombre 4" cx="224.82" cy="111.07" fx="224.82" fy="111.07" r="3.27" xlink:href="#Degradado_sin_nombre_4"/>
    <radialGradient id="Degradado_sin_nombre_4-38" data-name="Degradado sin nombre 4" cx="224.69" cy="108.48" fx="224.69" fy="108.48" r="3.25" xlink:href="#Degradado_sin_nombre_4"/>
    <radialGradient id="Degradado_sin_nombre_4-39" data-name="Degradado sin nombre 4" cx="224.69" cy="113.66" fx="224.69" fy="113.66" r="3.25" xlink:href="#Degradado_sin_nombre_4"/>
    <radialGradient id="Degradado_sin_nombre_4-40" data-name="Degradado sin nombre 4" cx="210.85" cy="107.36" fx="210.85" fy="107.36" r="4" xlink:href="#Degradado_sin_nombre_4"/>
    <radialGradient id="Degradado_sin_nombre_4-41" data-name="Degradado sin nombre 4" cx="215.56" cy="102.48" fx="215.56" fy="102.48" r="2.14" xlink:href="#Degradado_sin_nombre_4"/>
    <radialGradient id="Degradado_sin_nombre_4-42" data-name="Degradado sin nombre 4" cx="215.86" cy="101.83" fx="215.86" fy="101.83" r="2.11" xlink:href="#Degradado_sin_nombre_4"/>
    <radialGradient id="Degradado_sin_nombre_4-43" data-name="Degradado sin nombre 4" cx="218.81" cy="97.22" fx="218.81" fy="97.22" r="5.56" xlink:href="#Degradado_sin_nombre_4"/>
    <radialGradient id="Degradado_sin_nombre_4-44" data-name="Degradado sin nombre 4" cx="220.85" cy="102.07" fx="220.85" fy="102.07" r="3.08" xlink:href="#Degradado_sin_nombre_4"/>
    <radialGradient id="Degradado_sin_nombre_4-45" data-name="Degradado sin nombre 4" cx="214.22" cy="97.1" fx="214.22" fy="97.1" r="3.11" xlink:href="#Degradado_sin_nombre_4"/>
    <radialGradient id="Degradado_sin_nombre_4-46" data-name="Degradado sin nombre 4" cx="218.73" cy="97.86" fx="218.73" fy="97.86" r="3.84" xlink:href="#Degradado_sin_nombre_4"/>
    <radialGradient id="Degradado_sin_nombre_4-47" data-name="Degradado sin nombre 4" cx="217.59" cy="99.65" fx="217.59" fy="99.65" r="2.37" xlink:href="#Degradado_sin_nombre_4"/>
    <radialGradient id="Degradado_sin_nombre_4-48" data-name="Degradado sin nombre 4" cx="216.1" cy="98.82" fx="216.1" fy="98.82" r="2.3" xlink:href="#Degradado_sin_nombre_4"/>
    <radialGradient id="Degradado_sin_nombre_4-49" data-name="Degradado sin nombre 4" cx="218.56" cy="100.93" fx="218.56" fy="100.93" r="2.24" xlink:href="#Degradado_sin_nombre_4"/>
    <radialGradient id="Degradado_sin_nombre_4-50" data-name="Degradado sin nombre 4" cx="210.85" cy="114.58" fx="210.85" fy="114.58" r="3.97" xlink:href="#Degradado_sin_nombre_4"/>
    <radialGradient id="Degradado_sin_nombre_4-51" data-name="Degradado sin nombre 4" cx="215.56" cy="119.4" fx="215.56" fy="119.4" r="2.14" xlink:href="#Degradado_sin_nombre_4"/>
    <radialGradient id="Degradado_sin_nombre_4-52" data-name="Degradado sin nombre 4" cx="215.86" cy="120.05" fx="215.86" fy="120.05" r="2.11" xlink:href="#Degradado_sin_nombre_4"/>
    <radialGradient id="Degradado_sin_nombre_4-53" data-name="Degradado sin nombre 4" cx="218.81" cy="124.66" fx="218.81" fy="124.66" r="5.56" xlink:href="#Degradado_sin_nombre_4"/>
    <radialGradient id="Degradado_sin_nombre_4-54" data-name="Degradado sin nombre 4" cx="220.85" cy="119.81" fx="220.85" fy="119.81" r="3.08" xlink:href="#Degradado_sin_nombre_4"/>
    <radialGradient id="Degradado_sin_nombre_4-55" data-name="Degradado sin nombre 4" cx="214.22" cy="124.84" fx="214.22" fy="124.84" r="3.15" xlink:href="#Degradado_sin_nombre_4"/>
    <radialGradient id="Degradado_sin_nombre_4-56" data-name="Degradado sin nombre 4" cx="218.73" cy="124.08" fx="218.73" fy="124.08" r="3.87" xlink:href="#Degradado_sin_nombre_4"/>
    <radialGradient id="Degradado_sin_nombre_4-57" data-name="Degradado sin nombre 4" cx="217.59" cy="122.23" fx="217.59" fy="122.23" r="2.37" xlink:href="#Degradado_sin_nombre_4"/>
    <radialGradient id="Degradado_sin_nombre_4-58" data-name="Degradado sin nombre 4" cx="216.1" cy="123.06" fx="216.1" fy="123.06" r="2.3" xlink:href="#Degradado_sin_nombre_4"/>
    <radialGradient id="Degradado_sin_nombre_4-59" data-name="Degradado sin nombre 4" cx="218.56" cy="120.94" fx="218.56" fy="120.94" r="2.24" xlink:href="#Degradado_sin_nombre_4"/>
    <radialGradient id="Degradado_sin_nombre_4-60" data-name="Degradado sin nombre 4" cx="204.93" cy="107.03" fx="204.93" fy="107.03" r="2.67" xlink:href="#Degradado_sin_nombre_4"/>
    <radialGradient id="Degradado_sin_nombre_4-61" data-name="Degradado sin nombre 4" cx="204.93" cy="114.93" fx="204.93" fy="114.93" r="2.67" xlink:href="#Degradado_sin_nombre_4"/>
    <radialGradient id="Degradado_sin_nombre_4-62" data-name="Degradado sin nombre 4" cx="199.49" cy="107.03" fx="199.49" fy="107.03" r="2.67" xlink:href="#Degradado_sin_nombre_4"/>
    <radialGradient id="Degradado_sin_nombre_4-63" data-name="Degradado sin nombre 4" cx="199.49" cy="114.93" fx="199.49" fy="114.93" r="2.67" xlink:href="#Degradado_sin_nombre_4"/>
    <radialGradient id="Degradado_sin_nombre_4-64" data-name="Degradado sin nombre 4" cx="68.19" cy="112.36" fx="68.19" fy="112.36" r="8.61" xlink:href="#Degradado_sin_nombre_4"/>
    <radialGradient id="Degradado_sin_nombre_4-65" data-name="Degradado sin nombre 4" cx="54.91" cy="112.31" fx="54.91" fy="112.31" r="2.49" xlink:href="#Degradado_sin_nombre_4"/>
    <radialGradient id="Degradado_sin_nombre_4-66" data-name="Degradado sin nombre 4" cx="53.35" cy="112.23" fx="53.35" fy="112.23" r="2.2" xlink:href="#Degradado_sin_nombre_4"/>
    <radialGradient id="Degradado_sin_nombre_4-67" data-name="Degradado sin nombre 4" cx="44.31" cy="112.33" fx="44.31" fy="112.33" r="6.65" xlink:href="#Degradado_sin_nombre_4"/>
    <radialGradient id="Degradado_sin_nombre_4-68" data-name="Degradado sin nombre 4" cx="45.61" cy="112.18" fx="45.61" fy="112.18" r="5.04" xlink:href="#Degradado_sin_nombre_4"/>
    <radialGradient id="Degradado_sin_nombre_4-69" data-name="Degradado sin nombre 4" cx="49.71" cy="106.98" fx="49.71" fy="106.98" r="3.61" xlink:href="#Degradado_sin_nombre_4"/>
    <radialGradient id="Degradado_sin_nombre_4-70" data-name="Degradado sin nombre 4" cx="49.71" cy="117.72" fx="49.71" fy="117.72" r="3.61" xlink:href="#Degradado_sin_nombre_4"/>
    <radialGradient id="Degradado_sin_nombre_4-71" data-name="Degradado sin nombre 4" cx="49.02" cy="112.36" fx="49.02" fy="112.36" r="3.27" xlink:href="#Degradado_sin_nombre_4"/>
    <radialGradient id="Degradado_sin_nombre_4-72" data-name="Degradado sin nombre 4" cx="49.15" cy="109.77" fx="49.15" fy="109.77" r="3.25" xlink:href="#Degradado_sin_nombre_4"/>
    <radialGradient id="Degradado_sin_nombre_4-73" data-name="Degradado sin nombre 4" cx="49.15" cy="114.95" fx="49.15" fy="114.95" r="3.25" xlink:href="#Degradado_sin_nombre_4"/>
    <radialGradient id="Degradado_sin_nombre_4-74" data-name="Degradado sin nombre 4" cx="62.99" cy="108.66" fx="62.99" fy="108.66" r="4" xlink:href="#Degradado_sin_nombre_4"/>
    <radialGradient id="Degradado_sin_nombre_4-75" data-name="Degradado sin nombre 4" cx="58.28" cy="103.77" fx="58.28" fy="103.77" r="2.14" xlink:href="#Degradado_sin_nombre_4"/>
    <radialGradient id="Degradado_sin_nombre_4-76" data-name="Degradado sin nombre 4" cx="57.98" cy="103.12" fx="57.98" fy="103.12" r="2.11" xlink:href="#Degradado_sin_nombre_4"/>
    <radialGradient id="Degradado_sin_nombre_4-77" data-name="Degradado sin nombre 4" cx="55.03" cy="98.51" fx="55.03" fy="98.51" r="5.56" xlink:href="#Degradado_sin_nombre_4"/>
    <radialGradient id="Degradado_sin_nombre_4-78" data-name="Degradado sin nombre 4" cx="52.99" cy="103.36" fx="52.99" fy="103.36" r="3.08" xlink:href="#Degradado_sin_nombre_4"/>
    <radialGradient id="Degradado_sin_nombre_4-79" data-name="Degradado sin nombre 4" cx="59.62" cy="98.39" fx="59.62" fy="98.39" r="3.11" xlink:href="#Degradado_sin_nombre_4"/>
    <radialGradient id="Degradado_sin_nombre_4-80" data-name="Degradado sin nombre 4" cx="55.11" cy="99.15" fx="55.11" fy="99.15" r="3.84" xlink:href="#Degradado_sin_nombre_4"/>
    <radialGradient id="Degradado_sin_nombre_4-81" data-name="Degradado sin nombre 4" cx="56.25" cy="100.94" fx="56.25" fy="100.94" r="2.37" xlink:href="#Degradado_sin_nombre_4"/>
    <radialGradient id="Degradado_sin_nombre_4-82" data-name="Degradado sin nombre 4" cx="57.74" cy="100.11" fx="57.74" fy="100.11" r="2.3" xlink:href="#Degradado_sin_nombre_4"/>
    <radialGradient id="Degradado_sin_nombre_4-83" data-name="Degradado sin nombre 4" cx="55.28" cy="102.23" fx="55.28" fy="102.23" r="2.24" xlink:href="#Degradado_sin_nombre_4"/>
    <radialGradient id="Degradado_sin_nombre_4-84" data-name="Degradado sin nombre 4" cx="62.99" cy="115.87" fx="62.99" fy="115.87" r="3.97" xlink:href="#Degradado_sin_nombre_4"/>
    <radialGradient id="Degradado_sin_nombre_4-85" data-name="Degradado sin nombre 4" cx="58.28" cy="120.69" fx="58.28" fy="120.69" r="2.14" xlink:href="#Degradado_sin_nombre_4"/>
    <radialGradient id="Degradado_sin_nombre_4-86" data-name="Degradado sin nombre 4" cx="57.98" cy="121.34" fx="57.98" fy="121.34" r="2.11" xlink:href="#Degradado_sin_nombre_4"/>
    <radialGradient id="Degradado_sin_nombre_4-87" data-name="Degradado sin nombre 4" cx="55.03" cy="125.95" fx="55.03" fy="125.95" r="5.56" xlink:href="#Degradado_sin_nombre_4"/>
    <radialGradient id="Degradado_sin_nombre_4-88" data-name="Degradado sin nombre 4" cx="52.99" cy="121.1" fx="52.99" fy="121.1" r="3.08" xlink:href="#Degradado_sin_nombre_4"/>
    <radialGradient id="Degradado_sin_nombre_4-89" data-name="Degradado sin nombre 4" cx="59.62" cy="126.13" fx="59.62" fy="126.13" r="3.15" xlink:href="#Degradado_sin_nombre_4"/>
    <radialGradient id="Degradado_sin_nombre_4-90" data-name="Degradado sin nombre 4" cx="55.11" cy="125.37" fx="55.11" fy="125.37" r="3.87" xlink:href="#Degradado_sin_nombre_4"/>
    <radialGradient id="Degradado_sin_nombre_4-91" data-name="Degradado sin nombre 4" cx="56.25" cy="123.52" fx="56.25" fy="123.52" r="2.37" xlink:href="#Degradado_sin_nombre_4"/>
    <radialGradient id="Degradado_sin_nombre_4-92" data-name="Degradado sin nombre 4" cx="57.74" cy="124.35" fx="57.74" fy="124.35" r="2.3" xlink:href="#Degradado_sin_nombre_4"/>
    <radialGradient id="Degradado_sin_nombre_4-93" data-name="Degradado sin nombre 4" cx="55.28" cy="122.23" fx="55.28" fy="122.23" r="2.24" xlink:href="#Degradado_sin_nombre_4"/>
    <radialGradient id="Degradado_sin_nombre_4-94" data-name="Degradado sin nombre 4" cx="68.91" cy="108.32" fx="68.91" fy="108.32" r="2.67" xlink:href="#Degradado_sin_nombre_4"/>
    <radialGradient id="Degradado_sin_nombre_4-95" data-name="Degradado sin nombre 4" cx="68.91" cy="116.22" fx="68.91" fy="116.22" r="2.67" xlink:href="#Degradado_sin_nombre_4"/>
    <radialGradient id="Degradado_sin_nombre_4-96" data-name="Degradado sin nombre 4" cx="74.35" cy="108.32" fx="74.35" fy="108.32" r="2.67" xlink:href="#Degradado_sin_nombre_4"/>
    <radialGradient id="Degradado_sin_nombre_4-97" data-name="Degradado sin nombre 4" cx="74.35" cy="116.22" fx="74.35" fy="116.22" r="2.67" xlink:href="#Degradado_sin_nombre_4"/>
    <radialGradient id="Degradado_sin_nombre_4-98" data-name="Degradado sin nombre 4" cx="137.21" cy="110.77" fx="137.21" fy="110.77" r="119.64" xlink:href="#Degradado_sin_nombre_4"/>
    <radialGradient id="Degradado_sin_nombre_4-99" data-name="Degradado sin nombre 4" cx="283.69" cy="286.34" fx="283.69" fy="286.34" r="4.19" xlink:href="#Degradado_sin_nombre_4"/>
    <radialGradient id="Degradado_sin_nombre_4-100" data-name="Degradado sin nombre 4" cx="292.83" cy="286.34" fx="292.83" fy="286.34" r="4.57" xlink:href="#Degradado_sin_nombre_4"/>
    <radialGradient id="Degradado_sin_nombre_4-101" data-name="Degradado sin nombre 4" cx="114.6" cy="316.59" fx="114.6" fy="316.59" r="5.79" xlink:href="#Degradado_sin_nombre_4"/>
    <radialGradient id="Degradado_sin_nombre_4-102" data-name="Degradado sin nombre 4" cx="126.1" cy="316.56" fx="126.1" fy="316.56" r="5.43" xlink:href="#Degradado_sin_nombre_4"/>
    <radialGradient id="Degradado_sin_nombre_4-103" data-name="Degradado sin nombre 4" cx="137.63" cy="316.56" fx="137.63" fy="316.56" r="5.63" xlink:href="#Degradado_sin_nombre_4"/>
    <radialGradient id="Degradado_sin_nombre_4-104" data-name="Degradado sin nombre 4" cx="149.37" cy="316.59" fx="149.37" fy="316.59" r="5.79" xlink:href="#Degradado_sin_nombre_4"/>
    <radialGradient id="Degradado_sin_nombre_4-105" data-name="Degradado sin nombre 4" cx="160.87" cy="316.56" fx="160.87" fy="316.56" r="5.43" xlink:href="#Degradado_sin_nombre_4"/>
    <radialGradient id="Degradado_sin_nombre_4-106" data-name="Degradado sin nombre 4" cx="171.67" cy="316.59" fx="171.67" fy="316.59" r="5.79" xlink:href="#Degradado_sin_nombre_4"/>
    <radialGradient id="Degradado_sin_nombre_4-107" data-name="Degradado sin nombre 4" cx="187.34" cy="316.56" fx="187.34" fy="316.56" r="5.84" xlink:href="#Degradado_sin_nombre_4"/>
    <radialGradient id="Degradado_sin_nombre_4-108" data-name="Degradado sin nombre 4" cx="198.75" cy="316.59" fx="198.75" fy="316.59" r="6.25" xlink:href="#Degradado_sin_nombre_4"/>
    <radialGradient id="Degradado_sin_nombre_4-109" data-name="Degradado sin nombre 4" cx="211.41" cy="316.67" fx="211.41" fy="316.67" r="5.65" xlink:href="#Degradado_sin_nombre_4"/>
    <radialGradient id="Degradado_sin_nombre_4-110" data-name="Degradado sin nombre 4" cx="223.48" cy="316.56" fx="223.48" fy="316.56" r="5.61" xlink:href="#Degradado_sin_nombre_4"/>
    <radialGradient id="Degradado_sin_nombre_4-111" data-name="Degradado sin nombre 4" cx="238.82" cy="316.59" fx="238.82" fy="316.59" r="5.79" xlink:href="#Degradado_sin_nombre_4"/>
    <radialGradient id="Degradado_sin_nombre_4-112" data-name="Degradado sin nombre 4" cx="251.02" cy="316.56" fx="251.02" fy="316.56" r="5.75" xlink:href="#Degradado_sin_nombre_4"/>
    <radialGradient id="Degradado_sin_nombre_4-113" data-name="Degradado sin nombre 4" cx="258.71" cy="316.56" fx="258.71" fy="316.56" r="4.44" xlink:href="#Degradado_sin_nombre_4"/>
    <radialGradient id="Degradado_sin_nombre_4-114" data-name="Degradado sin nombre 4" cx="267.24" cy="316.56" fx="267.24" fy="316.56" r="5.63" xlink:href="#Degradado_sin_nombre_4"/>
  </defs>
  <g id="Capa_1-2" data-name="Capa 1">
    <path class="cls-34" d="m150.29,47.57s3.69.06,4.34,1.09,10.5,16.08,10.5,16.08c0,0,14.14-13.72,14.67-13.95s7.45-.57,7.63-.23.86.86-.35,1.21c0,0,.73,1.12-.15,1.77,0,0,.5.48-.37,1.52,0,0,.35,1.21-.52,1.38,0,0-.17,1.73-1.04,1.73,0,0-1.56-1.73-3.28-1.38,0,0-.83.17-.85,1.64,0,0-.03.64-.63.8s-3.86,2.41-11.22,10.79c0,0-3.41,3.44-5.3,3.4s-11.83-13.53-11.83-13.53c0,0,.43,2.26,0,3.12l-4.94-.07s1.09-14.56,3.32-15.37Z"/>
    <path class="cls-15" d="m126.41,47.78s-2.67-.13-3.23.03-2.17.42-3.87,3.66-6.71,15.17-6.71,15.17l-15.36-15.18h-7.17s-1.65,1.3.93,1.59c0,0-.43.85.39,1.35,0,0-.63.59.18,1.49,0,0-.67.94.5,1.26,0,0-.84,1.3,1.21,1.25s2.5-.59,4.78.19c0,0,2.51,3.08,6.37,9.37s6.44,8.15,7.49,8.51,1.63,1.26,3.93-1,10.08-15.59,10.08-15.59c0,0,.05,2.29.37,3.05h3.11l-1.6-15.18-1.38.02Z"/>
    <path class="cls-16" d="m90.89,53.72s-3.41-.56-4.77,1.43c-1.36,1.99-.07,5.25,1.02,5.96s3.5,1.39,5.06-.68c0,0,.93-1.27,1.07-2.02,0,0,.96,3.29.98,4.64,0,0-1.13,1.6-4.27,1.65s-4.6-1.59-5.08-2.24-2.21-2.2-1.69-6.18c.52-3.98,5.76-4.92,6.6-4.79,0,0,1.7.73,1.09,2.24Z"/>
    <path class="cls-18" d="m130,53.37l2.3,9.57h11.59l3.5-10.51s-16.73-.23-17.38.94Z"/>
    <path class="cls-9" d="m147.12,52.87l-3.24,10.07h3.08l2.31-12.38s-2.37.47-2.16,2.31Z"/>
    <path class="cls-1" d="m129.64,52.73c.68-.57,1.97-2.51,1.97-2.51"/>
    <path class="cls-10" d="m128.2,51.48l1.18,11.46h2.92l-2.3-9.57s-.01-2.2-1.8-1.9Z"/>
    <path class="cls-8" d="m134.24,40.23s-4.66-8.97-2.18-12.97,8.41-2.77,8.41-2.77c0,0,5.27,1.35,5.38,6.02.11,4.67-3.35,10.03-3.35,10.03,0,0-3.01,4.73-8.25-.31Z"/>
    <path class="cls-12" d="m137.2,29.96s-1.61-2-4.9.14"/>
    <path class="cls-12" d="m137.29,30.9s-1.46,1.43-4.27,0c0,0,1.49-2.03,4.27,0Z"/>
    <path class="cls-12" d="m133.82,30.27s-.28.99-.04.96c0,0,.47.21,1.05.27s1.19-.02,1.19-.02c0,0,.28-.83.09-1.24,0,0-1.1-.56-2.29.03Z"/>
    <path class="cls-12" d="m140.29,30.9s1.92-2.12,4.27,0c0,0-1.46,1.43-4.27,0Z"/>
    <path class="cls-12" d="m141.68,30.07s-.6.81-.15,1.32c0,0,1.13.38,2.08.02,0,0,.23-.99.07-1.11s-.91-.5-2-.22Z"/>
    <path class="cls-12" d="m144.81,29.82s-3.1-1.99-4.74.69c0,0-.09,4-.04,4.25s.39,1.46-.3,1.8-1.78.19-2.01,0c0,0-.93.12-1.02-.55"/>
    <path class="cls-12" d="m139.77,36.54s1.91.12,1.19-1.31"/>
    <path class="cls-12" d="m136.14,38.11s1.22-.85,1.8-.68.4.17.75.17.58-.17.81-.17,1.62.68,1.62.68c0,0-.76,1.46-1.51,1.6s-1.67.18-2.25-.27-1.22-1.33-1.22-1.33Z"/>
    <path class="cls-12" d="m136.14,38.11s.88.36,2.14.36h1.88c.42,0,.94-.36.94-.36"/>
    <path class="cls-17" d="m134.24,40.23s1.32,5.56-2.91,6.74-5.89-.9-6.18-2.37c-.29-1.47.06-4.94,3.51-4.59,0,0,1.04.28,1.3.75,0,0-1.21-1.83-1.83-2.93-1.02-1.79-2.09-5.52-1.99-8.24.1-2.72.62-6.86,3.91-9.46,3.28-2.59,7.07-2.77,9.85-2.77s7.46,1.69,9.35,3.79c1.89,2.09,2.75,3.28,3.18,5.71.43,2.43.15,6.65-.92,9.9-1.07,3.25-1.59,3.94-1.59,3.94,0,0,2.83,1.78,1.76,4.43s-3.59,2.6-3.97,2.63-4.42.04-5.17-3.16c-.75-3.21.12-4.35.29-4.64s2.62-3.98,2.95-8.18c.33-4.21-2.42-5.86-2.42-5.86,0,0-2.13-2.15-6.26-1.55s-5.16,3.04-5.51,3.9-.32,3.71.18,5.39,1.12,3.99,2.46,6.56Z"/>
    <path class="cls-12" d="m149.93,40.71c-.17-.08-3.11-1.21-4.04,1.53-.97,2.86,1.56,2.84,1.99,2.72s1.44-.59.68-2.17"/>
    <line class="cls-12" x1="131.55" y1="32.56" x2="126.52" y2="32.91"/>
    <line class="cls-12" x1="131.4" y1="31.36" x2="126.43" y2="31.36"/>
    <line class="cls-12" x1="131.4" y1="29.92" x2="126.09" y2="29.97"/>
    <line class="cls-12" x1="132.23" y1="27.02" x2="127.56" y2="23.23"/>
    <line class="cls-12" x1="133.03" y1="26.11" x2="128.6" y2="21.5"/>
    <line class="cls-12" x1="134.13" y1="25.33" x2="129.98" y2="20.29"/>
    <line class="cls-12" x1="137.36" y1="24.27" x2="136.89" y2="17.53"/>
    <line class="cls-12" x1="138.82" y1="24.27" x2="138.79" y2="17.44"/>
    <line class="cls-12" x1="140.22" y1="24.46" x2="141.04" y2="17.36"/>
    <line class="cls-12" x1="142.91" y1="25.54" x2="147.43" y2="19.68"/>
    <line class="cls-12" x1="143.82" y1="26.26" x2="149.24" y2="21.3"/>
    <line class="cls-12" x1="145.73" y1="30.25" x2="152.62" y2="29.97"/>
    <line class="cls-12" x1="145.79" y1="31.55" x2="152.62" y2="31.36"/>
    <line class="cls-12" x1="145.69" y1="32.73" x2="152.37" y2="32.9"/>
    <line class="cls-12" x1="150.55" y1="22.89" x2="144.75" y2="27.37"/>
    <path class="cls-12" d="m129.96,40.77s.98,1.11.36,2.69c0,0-.45,1.75-2.35,1.23-1.7-.46-.59-3.08.11-2.68"/>
    <path class="cls-7" d="m134.24,40.23s.72,3.67-.62,5.1c0,0,3.32,2.98,6.44,1.95s2.73-1.95,2.73-1.95c0,0-.99-2.37-.3-4.79,0,0-2.84,4.73-8.25-.31Z"/>
    <path class="cls-5" d="m133.63,45.33s-.58.95-1.56,1.37c0,0,2.93,2.85,5.56,2.93s4.78-.88,5.74-1.65c.86-.69.96-1,.96-1,0,0-1.22-.66-1.52-1.64,0,0,.22,1.1-3.06,2.04,0,0-2.52.84-6.1-2.04Z"/>
    <path class="cls-6" d="m132.07,46.69s-.96.45-1.83.52c0,0,1.87,2.36,4.13,3.38s4.39,1.03,6.09.68,3.47-1.47,3.97-1.95,1.91-1.64,1.91-1.64c0,0-1.58-.32-2.01-.7,0,0-.96,1.18-2.45,1.87-.9.42-2.37.88-4.25.78s-4.4-1.62-5.56-2.93Z"/>
    <path class="cls-2" d="m130.31,47.31c-.05-.06-.12-.09-.2-.08-.22.03-.71.08-.96.09-.05,0-.08.06-.06.1,0,.01.01.02.02.04.07.13.19.22.33.23.33.03.8.18.92.84.03.17.15.32.32.37.36.1.9.37.81,1.17-.01.12.1.22.22.19.44-.11,1.28-.22,1.51.56.06.19.25.29.44.24.26-.07.62-.05.9.34.12.17.34.22.52.13.29-.15.73-.24,1.12.23.14.17.38.21.56.09.33-.23.87-.41,1.35.24.06.09.2.08.25-.01.22-.35.92-.56,1.53-.16.18.12.43.08.56-.1.23-.3.61-.64,1.12-.41.2.09.44,0,.53-.19.17-.33.51-.71,1.13-.55.21.05.43-.09.49-.3.1-.41.38-.92,1.16-.84.22.02.43-.12.46-.33.04-.28.24-.6.88-.59.24,0,.42-.21.39-.44,0-.07-.01-.14,0-.21,0-.11-.06-.21-.16-.24h0c-.08-.02-.16,0-.21.06-.45.47-2.58,2.59-4.92,3.26-2.63.75-4.13.42-5.02.24s-3.27-1.09-4-1.96c-.06-.07-.13-.14-.21-.2-.29-.23-1-.85-1.79-1.8Z"/>
    <path class="cls-3" d="m128.94,47.31s-1.1-.01-1.55-.24c-.06-.03-.12-.03-.18,0-.35.15-1.38.7-.39,1.66.06.06.08.16.05.24-.17.42-.51,1.69,1.15,2.12.1.02.16.11.17.21.03.43.2,1.52,1.28,1.34.12-.02.23.04.27.16.12.44.56,1.39,1.99,1.08.09-.02.18.01.23.08.25.31,1.04,1.09,2.11.64.08-.03.17-.01.24.04.26.23.98.74,1.72.38.07-.04.16-.02.23.03.28.21,1.06.69,1.84.17.06-.04.13-.05.2-.03.33.11,1.38.39,2.15-.09.05-.03.12-.05.18-.03.38.09,1.76.37,2.29-.56.04-.07.12-.11.2-.11.44,0,1.76-.04,1.95-.86.03-.11.13-.18.25-.17.55.07,1.92.09,2.16-1.25.02-.1.1-.18.2-.19.45-.04,1.63-.3,1.64-1.74,0-.08.04-.15.11-.2.52-.32,2.62-1.75.27-2.6-.05-.02-.1-.02-.15,0-.27.1-1.29.43-2.68.36-.12,0-.39-.08-.39.03,0,.14-.42.03-.35.17,0,0,0,0,0,0,.12.23-.04.5-.3.54s-.52.22-.48.84c0,0,.04.26-.38.17-.74-.17-1.09.18-1.27.94-.03.13-.1.24-.23.26,0,0-.01,0-.02,0,0,0-1.11-.15-1.41.68,0,0-.05.38-.29.09,0,0-.98-.75-1.4.49,0,0-.13.12-.29.04,0,0-1.02-.94-1.54-.25,0,0-.29.43-.4.3,0,0-.64-.99-1.5-.3,0,0-.23.21-.35,0,0,0-.31-1.03-1.21-.35,0,0,0,0-.01.01-.12.1-.31.04-.36-.11-.06-.19-.24-.59-.66-.59-.15,0-.32.17-.44.26-.1.07-.25.14-.25-.08,0-.18,0-1.31-1.51-.72-.08.03-.18-.01-.2-.1,0,0,0,0,0,0-.05-.17-.01-.36.08-.52.17-.3.22-.9-1.05-.75-.05,0-.11-.01-.14-.05,0,0,0,0,0,0-.08-.11-.11-.25-.09-.39.04-.26.32-.92-1.06-.75,0,0-.17,0-.17-.17,0-.1-.13-.11-.24-.14Z"/>
    <path class="cls-12" d="m126.88,48.98s1.37-.87,2.47-1.35"/>
    <path class="cls-12" d="m130.56,48.84c-1.21.69-2.43,2.44-2.43,2.44"/>
    <path class="cls-12" d="m131.6,50.22c-1.21.69-1.9,2.42-1.9,2.42"/>
    <path class="cls-12" d="m133.33,51.09s-.9,2.21-1.51,2.9"/>
    <path class="cls-12" d="m134.71,51.43s-.4,2.91-.57,3.25"/>
    <path class="cls-12" d="m136.44,51.78s.05,2.89-.35,3.33"/>
    <path class="cls-12" d="m138.17,52.12s.17,2.41-.03,3.17"/>
    <path class="cls-12" d="m140.24,51.95s.52,2.01.24,3.23"/>
    <path class="cls-12" d="m141.97,51.61s.92,1.57.95,2.93"/>
    <path class="cls-12" d="m143.53,50.74s1.16,1.17,1.51,2.73"/>
    <path class="cls-12" d="m145.26,49.53s1.66,1.16,2.19,2.55"/>
    <path class="cls-12" d="m146.12,48.32s2.52.86,3.14,1.88"/>
    <path class="cls-4" d="m126.27,62.94l25.64.07s.22.52-.28,1.9l-24.7-.07s-.64-1.29-.67-1.91Z"/>
    <path class="cls-12" d="m91.03,53.03s5.18-.83,4.85.24c0,0-.07.44-.55.5s-4.06.6-4.06.6c0,0-.78-.76-.24-1.34Z"/>
    <path class="cls-12" d="m91.45,55.86s4.62-.73,4.87-.87.62-1.19-.6-1.27-4.45.64-4.45.64c0,0-.63.42.18,1.49Z"/>
    <path class="cls-12" d="m92.09,57.13s3.3-.67,3.64-.78,1.03-.8.08-1.23l-4.35.74s-.57,1.11.64,1.26Z"/>
    <path class="cls-12" d="m93.1,58.49s2.07-.32,2.51-.76.81-.92.11-1.37l-3.64.78s-1.09,1.01,1.01,1.36Z"/>
    <path class="cls-93" d="m94.08,51.78s-1.51-3.12-1.35-3.81,1.42-2.79.88-5.54-1.41-3.45-1.41-3.45c0,0-2.85,3.02-1.68,6.87,0,0,.63,1.47.81,2.05s.29,1.87.29,1.87l1.47,2h1Z"/>
    <path class="cls-11" d="m90.08,43.78s1,0,1,1.04c0,0,.32-.56.98-.84l.65.89s.81-.58,1.01-.83"/>
    <path class="cls-92" d="m93.08,51.78l-1.47-2s-2.19-1.3-2.36-1.73-.35-8.9-.35-8.9c0,0-4-.83-6.84,1.4s-2.49,6.05-2.49,6.05c0,0,3.1-.73,5.96,1.19l2.39,1.5,3.16,2.5h2Z"/>
    <polyline class="cls-12" points="89.25 48.06 88.04 48.15 87.92 49.29"/>
    <path class="cls-12" d="m88.9,39.16s-3.28,0-2.42,4.67c0,0-2.79-2.9-4.42-3.27,0,0,2.17,4.67,2.69,5.18,0,0-2.42-1.37-5.19.87"/>
    <path class="cls-91" d="m92.08,51.78l-6.55-3.99s-4.23-1.03-6.82.87c0,0,2.68,2.59,4.97,2.24s4.07-.6,5.08-.04,1.32.92,1.32.92h2Z"/>
    <path class="cls-12" d="m82.06,50.75s2.4-.51,2.63-.6c0,0-1.84-.61-2.01-.78,0,0,1.73-.52,2.07-.52,0,0-.1-.73-1.35-1.31"/>
    <path class="cls-96" d="m93.26,58.4s1.87,4.27,1.35,17.75c0,0,.01,1.1,1.22.55,0,0-.35,1.35,1.38.83,0,0,.08-9.5-.05-11.49s-.39-7.15-.87-7.85l-3.03.21Z"/>
    <path class="cls-12" d="m94.78,58.3s.88,1.15,1.04,6.05c.17,4.9,0,12.36,0,12.36"/>
    <path class="cls-12" d="m89.67,52.6s-3.36.04-4.39,2.29"/>
    <path class="cls-12" d="m93.92,60.55s-2.42,2.29-4.32,2.12"/>
    <path class="cls-12" d="m94.07,61.73s-2.06,2.67-4.82,1.98"/>
    <path class="cls-12" d="m186.05,56.45s-3.72-.86-4.02-1.04-1.51-.99.22-1.18c0,0,3.11.84,4.32.84,0,0-3.8-.47-4.32-.84s-1.02-1.01,1.22-1.21c0,0,2.63.57,3.47.53,0,0-4.17-.21-4.69-1.25s4.84-.52,4.84-.52"/>
    <path class="cls-12" d="m181.73,56.79s-1.48-1.04.3-1.38"/>
    <path class="cls-95" d="m182.86,56.83s-2.39,5.6-2.79,14.36-.22,20.02-.22,20.02l.16,3.78s-1.56-8.94-1.56-11.73.08-11.42.47-13.58c.4-2.17,1.7-11.38,2.09-12.05s.57-1.1,1.86-.8Z"/>
    <path class="cls-94" d="m182.86,56.83s1.46.48,2.15,1.34c0,0-.99,1.6-1.38,4.67-.62,4.82-.68,16.71-.35,20.74.17,2.07,1.21,10.89,1.21,10.89,0,0-1.85-4.25-2.39-8.69-.54-4.44-.6-9.83-.62-10.86-.1-4.82.34-10.06.75-13.67.33-2.91.63-4.42.63-4.42Z"/>
    <path class="cls-90" d="m182.95,50.5s2.57-4.73,5.69-6.74c0,0,1.78-1.02,3.05-1.26s3.6-1.28,3.99-1.54c.12-.08.37-.23.77-.37.92-.31,2.64-.5,5.44.6,0,0,.96.21,1.29.03,0,0-1.01,1.07-2.87,1.84-.72.3-1.56.54-2.53.66,0,0-2.12.18-3.99-.13s-4.05.69-5.03,1.49-3.18,2.81-4.45,5.3l-1.37.11Z"/>
    <path class="cls-12" d="m200.32,43.08s-2.17-.12-3.21-.63c0,0,1.73-.86,2.42-.86,0,0-2.48-.32-2.88-.07,0,0,.98-.79,1.33-.79l-1.33-.19"/>
    <path class="cls-89" d="m185.31,50.38s2.79-4.03,5.74-4.95c2.95-.92,3.16-.72,3.83-.82s3.28-1.55,5.44-.82,3.68,1.21,3.68,1.21l-3.44.44s2.78,1.33,3.3,2.54c0,0-3.42-.63-4.13-.92,0,0,1.71,1.09,2.23,1.96,0,0-6-2.63-8.36-2.78s-4.95,1.31-6.77,4.21l-1.52-.06Z"/>
    <path class="cls-85" d="m151.64,64.92s-.17,1.14-1.89,4.29-1.04,7.87,0,11.3,4.68,12.42,3.81,17.61c-.86,5.19-5.81,21.78-6.1,24.11s-.93,8.75-.09,11.85.58,9.01-.42,14.18-2.98,10.18-2.76,13.38.19,5.62,2.88,9.94c0,0,.62,1.21-.42,1.56,0,0-.31.53-1.02.35,0,0-.95.52-1.52.34,0,0-.92.52-1.61.17,0,0-1.16.41-1.96.12,0,0-2.88.75-3.74-.64,0,0-1.73,1.73-3.11.35,0,0-1.73,1.04-2.59-.17,0,0-.69.52-1.21-.35,0,0-1.01.38-1.11-.93,0,0-.79-.61.07-1.4s2.67-3.45,2.89-4.11.72-5.28.3-6.68-2.14-8.62-2.41-10.89c-.26-2.27-1.55-9.34-1.08-13.49s.98-7.23.99-9.5c0-2.26-.87-9.25-1.82-14.05-.95-4.8-2.85-16.04-1.29-21.92,1.56-5.88,4.59-12.85,4.72-14.12s1.09-2.46-1.03-6.36c0,0-.81-1.76-1.99-2.83,0,0-1-1.2-1.17-2.17l24.7.07Z"/>
    <path class="cls-12" d="m134.68,95.61s2.98,4.46,3.77,4.37,1.9-3.98,3.77-4.37"/>
    <path class="cls-12" d="m138.45,99.97s-.72,26.68-.48,29.89.01,7.34-.05,11.84.06,20.63,0,21.73.37,4.23-.02,6.55-.91,3.19-.91,3.19"/>
    <path class="cls-12" d="m137.94,160.32c-1.82-.58-5.63,0-5.63,0"/>
    <path class="cls-12" d="m132.4,161.34s3.72-.78,5.54,0"/>
    <path class="cls-12" d="m132.48,162.86s2.82-.81,5.38-.23"/>
    <path class="cls-12" d="m132.3,164.01s3.13-1.2,5.55-.17"/>
    <path class="cls-12" d="m144.42,160.32s-5.71-.93-6.48-.26"/>
    <path class="cls-12" d="m137.94,161.08s-.35-.69,6.44.26"/>
    <path class="cls-12" d="m137.93,162.43s2.85-.81,6.48.22"/>
    <path class="cls-12" d="m137.91,163.72s2.58-1.51,6.71,0"/>
    <path class="cls-12" d="m133.68,173.65s.21-1.16.9-1.5.6-.41.6-.41"/>
    <path class="cls-12" d="m131.08,173.65c0-.69.28-1.44,1.07-1.85.68-.36.69-.35.69-.35"/>
    <path class="cls-12" d="m129.87,173.3s.38-1.5.72-1.68.86-.69.86-.69"/>
    <path class="cls-12" d="m140.59,174.34s.35-1.5-.07-1.94-.78-.67-.78-.67"/>
    <path class="cls-12" d="m142.49,173.99s.42-1.16-.46-2.02c0,0-.41-.35-.65-.52"/>
    <path class="cls-12" d="m144.05,173.82s.21-1.5-.66-2.02l-.86-.52"/>
    <path class="cls-12" d="m145.6,173.48s.35-.81-.15-1.33-.87-1.06-1.03-1.13"/>
    <path class="cls-12" d="m128.76,172.37s.07-1.14,1.28-1.49l.17-.35"/>
    <path class="cls-12" d="m146.64,173.13s.17-1.04-.52-1.56-.77-.64-.77-.64"/>
    <path class="cls-86" d="m160.13,164.31s-7.01,8.18-12.93,8.76c-5.92.58-15.25.63-21.3-.52-6.05-1.15-15.04.99-18.5,3.38-3.46,2.39-9.02,6.51-15.4,17.84,0,0-4.48,6.84-6.21,6.15s-4.24-1.23-3.5,1.46,6.91-1.46,8.41-3.36,14.23-18.01,17.46-19.21,5.47-1.88,5.47-1.88c0,0-3.58,2.42-3.69,10.2,0,0-.02,2.77-4.91,4.84,0,0-1.13.04-1.45,2.27-.32,2.23-.41,5.05-.97,6.23s-1.4,2.46-.55,3.12,1.44-.51,1.4,1.46c0,0-.43,1.02,1.32.97s6.6-.05,6.6-.05c0,0,.77-3.37-2.91-3.85,0,0-1.74-.03-1.49-1.46.24-1.43.15-3.28.71-3.82s4.15-1.78,5.3-2.2,4.43-.94,6.16-2.67c0,0,3.11.69,1.9,6.4,0,0,4.84,5.01,5.19,5.7s.43,2.01,1.68,1.96,8.25.09,8.25.09c0,0,.9-3.57-2.79-3.67s-3.63-.67-4.35-1.42-3.12-3.53-2.27-5.17c.85-1.63,4.14-8.55,5.35-8.03s9.33,3.37,13.92,3.16c0,0-1.49,10.13-1.82,11.01-.34.88-.81,2.01.21,2.48s1.03.36.94.85-.15.81.65.73,6.65,0,6.65,0c0,0,.9-2.5-2.22-3.02s-2.07-1.21-1.9-1.73,3.42-9.85,4.65-10.2,1.44-.83,2.98,1.92c1.53,2.75,4.83,8.39,4.83,9.03s-.38,2.77,1.1,2.48,1.43,1.19,1.28,1.49l7.67.08s.24-3.37-3.06-3.98c-.46-.09-.94-.07-1.41,0-.43.06-1.15,0-1.62-.87-.7-1.32-4.77-9.1-3.08-14.11,1.69-5.01,2.37-7.45,2.98-9.17.61-1.72,1.65-5.99,4.76-5.41,2.33.43,3.43.45,3.89-.09.22-.25.26-.62.14-.94-.05-.15-.07-.38.11-.65.35-.52,1.73-1.73,1.73-3.46s-2.07-2.16-3.46-2.72-8.47-2.64-8.47-2.64c0,0-1.08-2.59-3.22-.78-2.14,1.82-.23,3.02-.23,3.02Z"/>
    <path class="cls-12" d="m119.16,191.97s4.58-2.76,6.65-7.25l6.22,3.11"/>
    <path class="cls-13" d="m125.81,184.72s-.52-.17-1.04-.69"/>
    <path class="cls-12" d="m106.01,206.06s.44-1.46-.42-2.32"/>
    <path class="cls-12" d="m108.71,206.04s.67-2.13-1.4-2.99"/>
    <path class="cls-12" d="m107.31,201.78s-.67-.31-1.46-.39"/>
    <path class="cls-12" d="m130.99,206.03s.35-1.43-1.56-2.29"/>
    <path class="cls-12" d="m133.59,206.03s.47-1.43-1.58-2.29"/>
    <path class="cls-12" d="m148.14,206.03s.38-1.03-.52-1.49"/>
    <path class="cls-12" d="m150.27,206.03s.78-1.26-.78-1.95"/>
    <path class="cls-12" d="m167.11,206.13s-.06-1.52-1.49-2.04"/>
    <path class="cls-12" d="m169.07,206.12s0-1.86-1.67-2.38"/>
    <path class="cls-12" d="m152.86,191.28c.15-.06,2.43-4.59,1.12-8.29"/>
    <path class="cls-12" d="m146.12,190.94s-.52-3.11-.18-4.77"/>
    <path class="cls-12" d="m154.59,190.94s3.46-2.42,4.67-4.15"/>
    <path class="cls-12" d="m160.73,162.43s1.21-.92,1.72.4"/>
    <path class="cls-12" d="m161.19,165.56s-1.16,5.68,2.82,8.01"/>
    <path class="cls-12" d="m162.63,165.19s-1.22,5.36,3.28,7.43"/>
    <path class="cls-12" d="m173.61,171.23s.43-1.2-1.65-1.2"/>
    <path class="cls-12" d="m174.87,169.35s-1.12-1.25-.57-1.58"/>
    <path class="cls-12" d="m166.37,166.1s.58-.05,1.03,0c.36.04,1.37-.76,1.78-1.1.11-.09.17-.15.17-.15"/>
    <path class="cls-12" d="m167.4,166.1s.56.05,2.13,0"/>
    <path class="cls-12" d="m169.18,166.11s-.01-1.13,0-1.11"/>
    <g>
      <path class="cls-87" d="m3.44,246.97c2.29-4.64,5.44-8.32,9.44-11.04,4-2.71,8.38-4.07,13.13-4.07,5.04,0,9.53,1.36,13.47,4.07,3.94,2.71,7.01,6.38,9.19,10.99,2.18,4.62,3.27,9.72,3.27,15.32,0,5.09-.99,9.79-2.98,14.1-1.99,4.31-4.74,7.86-8.27,10.66s-7.47,4.56-11.83,5.29c1.79.67,3.13,1.2,4.03,1.59,2.46,1.01,4.49,1.75,6.08,2.22,1.59.47,3.29.71,5.08.71,1.45,0,2.71-.14,3.78-.42.11,1.18-.32,2.59-1.3,4.24-.98,1.65-2.42,3.09-4.32,4.32-1.9,1.23-4.17,1.85-6.8,1.85s-5.32-.67-8.23-2.01c-.5-.22-1.26-.62-2.27-1.17-2.29-1.12-4.14-1.94-5.54-2.48-1.4-.53-2.83-.8-4.28-.8-1.85,0-3.52.53-5.04,1.59-.06-.22-.08-.59-.08-1.09,0-2.29,1.02-4.34,3.06-6.13,2.04-1.79,4.32-2.88,6.84-3.27-3.75-1.4-7.13-3.53-10.16-6.38s-5.4-6.25-7.13-10.2c-1.73-3.94-2.6-8.15-2.6-12.63,0-5.54,1.15-10.63,3.44-15.27Zm15.95,30.04c1.06,4.31,2.34,7.72,3.82,10.24,1.48,2.52,3.01,3.78,4.57,3.78,1.4,0,2.64-.99,3.73-2.98,1.09-1.99,1.93-4.73,2.52-8.22.59-3.5.88-7.43.88-11.79,0-2.07-.08-4.22-.25-6.46-.34-5.15-1.05-9.87-2.14-14.18-1.09-4.31-2.38-7.71-3.86-10.2-1.48-2.49-3.01-3.73-4.57-3.73-1.4,0-2.63.99-3.69,2.98-1.06,1.99-1.89,4.73-2.48,8.22-.59,3.5-.88,7.4-.88,11.71,0,2.13.08,4.28.25,6.46.34,5.15,1.03,9.88,2.1,14.18Z"/>
      <path class="cls-88" d="m99.41,280.84c-1.59,2.88-4.04,5.39-7.34,7.51-3.3,2.13-7.36,3.19-12.17,3.19-4.25,0-8.11-.84-11.58-2.52-3.47-1.68-6.23-4.14-8.27-7.39-2.04-3.25-3.06-7.1-3.06-11.58,0-4.2,1.1-7.9,3.31-11.12,2.21-3.22,5.17-5.71,8.9-7.47,3.72-1.76,7.76-2.64,12.13-2.64,2.35,0,4.7.41,7.05,1.22,2.35.81,4.42,2.17,6.21,4.07,1.79,1.9,2.91,4.34,3.36,7.3l-22.74,12.34c1.4,2.69,3.17,4.71,5.33,6.08,2.15,1.37,4.49,2.06,7.01,2.06,2.8,0,5.46-.81,7.97-2.43,2.52-1.62,4.5-3.89,5.96-6.8l.25.59c.06,2.18-.71,4.71-2.31,7.6Zm-24.8-8.27l8.06-4.7c-.17-3.52-.81-7.22-1.93-11.08-1.12-3.86-2.63-5.79-4.53-5.79-.22,0-.5.06-.84.17-.95.28-1.71,1.36-2.27,3.23-.56,1.88-.84,4.07-.84,6.59,0,3.64.59,7.05,1.76,10.24.28.73.47,1.18.59,1.34Z"/>
      <path class="cls-35" d="m129.67,250.16h-4.7v37.77c0,1.57.53,2.38,1.59,2.43h2.18v.84l-13.68-.08c-2.18-.05-3.82-.54-4.91-1.47-1.09-.92-1.64-2.75-1.64-5.5v-30.8c0-1.23-.35-2.07-1.05-2.52-.7-.45-1.44-.67-2.22-.67h-1.85v-.92c4.81,0,8.99-1.38,12.55-4.15,3.55-2.77,6.39-6.98,8.52-12.63l.5.42v16.37h4.7v.92Z"/>
      <path class="cls-36" d="m173.77,280.84c-1.59,2.88-4.04,5.39-7.34,7.51-3.3,2.13-7.36,3.19-12.17,3.19-4.25,0-8.11-.84-11.58-2.52-3.47-1.68-6.23-4.14-8.27-7.39-2.04-3.25-3.06-7.1-3.06-11.58,0-4.2,1.1-7.9,3.31-11.12,2.21-3.22,5.17-5.71,8.9-7.47,3.72-1.76,7.76-2.64,12.13-2.64,2.35,0,4.7.41,7.05,1.22,2.35.81,4.42,2.17,6.21,4.07,1.79,1.9,2.91,4.34,3.36,7.3l-22.74,12.34c1.4,2.69,3.17,4.71,5.33,6.08,2.15,1.37,4.49,2.06,7.01,2.06,2.8,0,5.46-.81,7.97-2.43,2.52-1.62,4.5-3.89,5.96-6.8l.25.59c.05,2.18-.71,4.71-2.31,7.6Zm-24.8-8.27l8.06-4.7c-.17-3.52-.81-7.22-1.93-11.08-1.12-3.86-2.63-5.79-4.53-5.79-.22,0-.5.06-.84.17-.95.28-1.71,1.36-2.27,3.23-.56,1.88-.84,4.07-.84,6.59,0,3.64.59,7.05,1.76,10.24.28.73.47,1.18.59,1.34Z"/>
      <path class="cls-37" d="m204.61,264.34c3.52,2.01,6.41,3.76,8.64,5.25,2.24,1.48,4.17,3.2,5.79,5.16,1.62,1.96,2.43,4.03,2.43,6.21-.06,2.41-1.11,4.48-3.15,6.21-2.04,1.74-4.73,3.05-8.06,3.94-3.33.89-6.95,1.34-10.87,1.34-5.65,0-10.24-.66-13.76-1.97-3.52-1.31-5.54-3.34-6.04-6.08-.11-.67-.17-1.17-.17-1.51,0-2.07.68-3.76,2.06-5.08,1.37-1.31,3.12-1.97,5.25-1.97s3.86.49,5.04,1.47c1.17.98,1.76,2.11,1.76,3.4s-.48,2.24-1.43,3.02c-.84.67-1.26,1.43-1.26,2.27,0,1.23.76,2.34,2.27,3.31,1.51.98,3.47,1.5,5.88,1.55,1.9.06,3.58-.46,5.04-1.55,1.45-1.09,2.18-2.39,2.18-3.9s-.78-2.96-2.35-4.36c-1.23-1.12-2.66-2.14-4.28-3.06-1.62-.92-3.58-1.92-5.88-2.98-3.08-1.46-5.55-2.77-7.43-3.95-1.88-1.17-3.46-2.63-4.74-4.36-1.29-1.73-1.93-3.8-1.93-6.21,0-2.24.97-4.27,2.9-6.08,1.93-1.82,4.48-3.26,7.64-4.32,3.16-1.06,6.48-1.59,9.95-1.59s7.1.53,10.91,1.59c2.13.5,3.58.75,4.36.75.89,0,1.71-.2,2.43-.59l.67.5-2.77,7.22-2.18,5.79h-.84c-.34-3.64-1.46-6.81-3.36-9.53-1.9-2.71-4.64-4.07-8.22-4.07-1.73,0-3.22.5-4.45,1.51-1.23,1.01-1.85,2.24-1.85,3.69,0,1.73.92,3.3,2.77,4.7,1.34,1.01,3.69,2.43,7.05,4.28Z"/>
      <path class="cls-38" d="m275.19,291.2h-24v-.84h2.1c1.12,0,1.68-.84,1.68-2.52v-27.28c0-3.97-1.01-5.96-3.02-5.96-1.06,0-2.25.5-3.57,1.51s-2.42,2.13-3.31,3.36v28.45c0,1.57.56,2.38,1.68,2.43h2.1v.84h-24v-.84h2.1c1.12,0,1.68-.84,1.68-2.52v-51.53c0-2.18-.95-3.27-2.85-3.27l-.92.08v-.67c9.74-2.01,16.37-4.11,19.89-6.29l.34.42v31.39c1.17-1.57,2.78-3.13,4.83-4.7,2.04-1.57,4.13-2.74,6.25-3.52,1.34-.5,2.8-.76,4.36-.76,3.02,0,5.59,1.01,7.72,3.02,2.13,2.01,3.19,5.09,3.19,9.23v26.69c0,.73.14,1.32.42,1.76.28.45.7.67,1.26.67h2.1v.84Z"/>
    </g>
    <g>
      <path class="cls-101" d="m193.49,111.07c0-.32.26-.57.57-.57h23.18c.32,0,.57.26.57.57s-.26.57-.57.57h-23.18c-.32,0-.57-.26-.57-.57Z"/>
      <path class="cls-104" d="m217.14,111.01c0-1.48,1.21-2.81,2.76-3.02.31-.04.6.18.64.49.04.31-.18.6-.49.64-.97.13-1.76.97-1.76,1.88,0,.96.87,1.83,1.91,1.89.32.02.56.29.54.61-.02.32-.29.56-.61.54-1.65-.1-2.98-1.46-2.98-3.04Z"/>
      <path class="cls-110" d="m219.92,113.42v-4.97c0-.32.26-.57.57-.57s.57.26.57.57v4.97c0,.32-.26.57-.57.57s-.57-.26-.57-.57Z"/>
      <path class="cls-109" d="m226.96,119.51c0-.16.07-.33.21-.44,2.41-2.01,3.79-4.96,3.79-8.1s-1.33-5.96-3.64-7.97c-.24-.21-.26-.57-.06-.81.21-.24.57-.26.81-.06,2.56,2.22,4.03,5.44,4.03,8.83s-1.53,6.75-4.2,8.97c-.24.2-.6.17-.81-.07-.09-.11-.13-.24-.13-.37Z"/>
      <path class="cls-103" d="m226.41,104.57c0-.16.06-.31.19-.43.23-.21.6-.19.81.04,1.7,1.88,2.63,4.28,2.63,6.77s-.89,4.78-2.51,6.63c-.21.24-.57.26-.81.05-.24-.21-.26-.57-.05-.81,1.44-1.65,2.23-3.73,2.23-5.88s-.83-4.33-2.34-6c-.1-.11-.15-.25-.15-.38Z"/>
      <path class="cls-102" d="m220.29,108.47s0,0,0-.01c0-.32.27-.57.59-.56.04,0,.09,0,.13,0,2.93,0,5.43-2.18,5.82-5.08.04-.31.33-.53.64-.49.31.04.53.33.49.64-.47,3.46-3.46,6.07-6.96,6.07-.05,0-.1,0-.15,0-.31,0-.56-.26-.56-.57Z"/>
      <path class="cls-106" d="m220.29,113.64c0-.31.25-.57.56-.57.05,0,.1,0,.15,0,3.5,0,6.49,2.61,6.96,6.07.04.31-.18.6-.49.64-.31.04-.6-.18-.64-.49-.39-2.9-2.89-5.08-5.82-5.08-.04,0-.09,0-.13,0-.32,0-.58-.24-.59-.56,0,0,0,0,0-.01Z"/>
      <path class="cls-105" d="m220.24,111.07c0-.32.26-.57.57-.57h8.02c.32,0,.57.26.57.57s-.26.57-.57.57h-8.02c-.32,0-.57-.26-.57-.57Z"/>
      <path class="cls-108" d="m220.48,109.74s0-.04,0-.06c.03-.31.31-.54.63-.51.08,0,.15.01.23.02h.04c2.47.02,5.63-.84,6.46-2.28.16-.27.51-.37.78-.21.27.16.37.51.21.78-1.09,1.89-4.66,2.89-7.48,2.86-.01,0-.02,0-.03,0h-.05c-.09,0-.18-.02-.26-.03-.3-.03-.52-.28-.52-.57Z"/>
      <path class="cls-107" d="m220.48,112.4c0-.29.22-.54.52-.57.09,0,.18-.02.26-.02h.05s.02,0,.03,0c2.81-.03,6.39.96,7.48,2.86.16.27.06.62-.21.78-.27.16-.62.06-.78-.21-.82-1.44-3.99-2.3-6.45-2.28h-.03c-.08,0-.15.01-.23.02-.31.03-.6-.2-.63-.51,0-.02,0-.04,0-.06Z"/>
      <g>
        <path class="cls-79" d="m206.83,110.77c0-.23.14-.45.36-.53.04-.02,4.09-1.66,6.6-6.54.14-.28.49-.39.77-.25.28.14.39.49.25.77-2.72,5.28-7.02,7.01-7.2,7.08-.29.12-.63-.03-.74-.33-.03-.07-.04-.14-.04-.21Z"/>
        <path class="cls-80" d="m213.28,102.04c0-.45.13-.9.36-1.28.17-.27.52-.35.79-.18.27.17.35.52.18.79-.16.25-.22.54-.18.83.04.34.21.64.48.85.27.21.6.3.94.26.38-.05.71-.26.92-.58.17-.27.53-.34.79-.17.27.17.34.53.17.79-.39.61-1.03,1-1.74,1.09-.64.08-1.28-.1-1.79-.5-.51-.4-.83-.97-.91-1.62-.01-.1-.02-.19-.02-.29Z"/>
        <path class="cls-83" d="m213.56,100.5c0-.12.04-.25.12-.35.19-.25.55-.3.8-.1l3.45,2.67c.25.19.3.55.1.8-.19.25-.55.3-.8.1l-3.45-2.67c-.15-.11-.22-.28-.22-.45Z"/>
        <path class="cls-98" d="m212.72,93.18c0-.25.16-.48.42-.55.47-.14.97-.23,1.46-.29,5.13-.62,9.63,2.9,10.25,8.02.05.42.07.84.07,1.26,0,.32-.26.57-.58.57-.31,0-.57-.26-.57-.57h0c0-.37-.02-.74-.06-1.11-.54-4.48-4.49-7.57-8.98-7.02-.43.05-.87.14-1.28.26-.3.09-.62-.09-.71-.39-.02-.05-.02-.11-.02-.16Z"/>
        <path class="cls-82" d="m216.77,103.02c0-.12.04-.23.11-.34.7-.96,2.94-1.98,3.98-2.1,1.36-.16,2.72.19,3.82.99.26.19.31.54.13.8-.19.26-.54.31-.8.13-.87-.63-1.94-.91-3.01-.78-.85.1-2.74,1.01-3.19,1.64-.19.26-.54.31-.8.13-.15-.11-.24-.29-.24-.46Z"/>
        <path class="cls-84" d="m212.64,93.57c0-.12.04-.24.11-.34.19-.25.55-.31.8-.12,1.06.78,1.88,2.15,2.15,3.57.27,1.44-.12,3.05-1.04,4.31-.19.25-.55.31-.8.12-.25-.19-.31-.55-.12-.8.74-1,1.06-2.28.84-3.41-.21-1.13-.88-2.25-1.7-2.86-.15-.11-.23-.29-.23-.46Z"/>
        <path class="cls-81" d="m214.55,94.99c0-.3.23-.55.53-.57,2.39-.17,4.36.57,5.86,2.22,1.05,1.15,1.72,2.54,1.96,4.02.05.31-.17.61-.48.65-.31.05-.61-.17-.65-.48-.2-1.26-.77-2.45-1.67-3.43-1.27-1.39-2.89-1.99-4.94-1.85-.32.02-.59-.21-.61-.53,0-.01,0-.03,0-.04Z"/>
        <path class="cls-97" d="m215.38,101.6c0-.13.04-.26.13-.37l3.28-3.9c.2-.24.57-.27.81-.07.24.2.27.57.07.81l-3.28,3.9c-.2.24-.57.27-.81.07-.13-.11-.2-.28-.2-.44Z"/>
        <path class="cls-99" d="m214.64,101.14c0-.12.03-.23.11-.33.02-.02,1.67-2.35,1.67-4.31h0c0-.33.26-.58.57-.59.32,0,.57.25.57.57h0c0,2.35-1.8,4.89-1.88,4.99-.18.26-.54.32-.8.13-.16-.11-.24-.29-.24-.47Z"/>
        <path class="cls-100" d="m215.9,102.08c0-.14.05-.28.16-.4.09-.09,2.19-2.27,4.55-2.46.32-.03.59.21.62.52.03.32-.21.59-.52.62-1.93.16-3.79,2.09-3.81,2.11-.22.23-.58.24-.81.02-.12-.11-.18-.26-.18-.42Z"/>
      </g>
      <g>
        <path class="cls-46" d="m206.83,111.24c0-.06.01-.13.03-.2.11-.3.44-.45.73-.34.18.07,4.49,1.67,7.22,6.96.14.28.03.63-.25.77-.28.14-.63.03-.77-.25-2.51-4.87-6.55-6.39-6.59-6.41-.23-.08-.38-.3-.38-.54Z"/>
        <path class="cls-40" d="m213.28,119.84c0-.1,0-.19.02-.29.08-.64.4-1.22.91-1.62.51-.4,1.14-.58,1.79-.5.72.09,1.35.48,1.74,1.09.17.27.1.62-.17.79-.27.17-.62.1-.79-.17-.21-.32-.54-.53-.92-.58-.34-.04-.67.05-.94.26-.27.21-.44.51-.48.85-.04.29.03.58.18.83.17.27.08.62-.18.79-.27.17-.62.08-.79-.18-.24-.38-.36-.83-.36-1.28Z"/>
        <path class="cls-41" d="m213.56,121.38c0-.17.08-.34.22-.45l3.45-2.67c.25-.19.61-.15.8.1.19.25.15.61-.1.8l-3.45,2.67c-.25.19-.61.15-.8-.1-.08-.1-.12-.23-.12-.35Z"/>
        <path class="cls-47" d="m212.72,128.7c0-.05,0-.1.02-.16.09-.3.4-.48.71-.39.42.12.85.21,1.28.26,4.49.54,8.43-2.54,8.97-7.02.04-.37.07-.74.06-1.1h0c0-.32.25-.58.57-.58.32,0,.58.25.58.57,0,.42-.02.84-.07,1.26-.62,5.12-5.12,8.65-10.25,8.02-.49-.06-.99-.16-1.46-.29-.25-.07-.42-.3-.42-.55Z"/>
        <path class="cls-43" d="m216.77,118.86c0-.18.08-.35.24-.46.26-.19.61-.13.8.13.45.62,2.34,1.53,3.19,1.64,1.07.13,2.14-.15,3.01-.78.26-.19.61-.13.8.13.19.26.13.61-.13.8-1.11.81-2.47,1.16-3.82.99-1.04-.13-3.29-1.14-3.98-2.1-.07-.1-.11-.22-.11-.34Z"/>
        <path class="cls-45" d="m212.64,128.44c0-.18.08-.35.23-.46.78-.57,1.48-1.8,1.7-2.98.21-1.14-.1-2.41-.84-3.41-.19-.25-.13-.61.12-.8.25-.19.61-.13.8.12.93,1.25,1.32,2.86,1.04,4.31-.28,1.47-1.14,2.95-2.15,3.69-.25.19-.61.13-.8-.12-.08-.1-.11-.22-.11-.34Z"/>
        <path class="cls-48" d="m214.55,127.01s0-.03,0-.04c.02-.32.3-.55.61-.53,1.92.14,3.63-.54,4.94-1.97.9-.98,1.47-2.16,1.67-3.43.05-.31.34-.53.65-.48.31.05.53.34.48.65-.23,1.49-.91,2.88-1.96,4.02-1.55,1.7-3.58,2.51-5.86,2.34-.3-.02-.53-.27-.53-.57Z"/>
        <path class="cls-44" d="m215.38,120.28c0-.16.07-.33.2-.44.24-.2.6-.17.81.07l3.28,3.9c.2.24.17.6-.07.81-.24.2-.6.17-.81-.07l-3.28-3.9c-.09-.11-.13-.24-.13-.37Z"/>
        <path class="cls-39" d="m214.64,120.73c0-.18.08-.35.24-.47.26-.18.62-.13.8.13.08.11,1.88,2.65,1.88,4.98h0c0,.33-.26.59-.57.59-.32,0-.57-.26-.57-.57h0c0-1.98-1.65-4.3-1.67-4.32-.07-.1-.11-.22-.11-.33Z"/>
        <path class="cls-42" d="m215.9,119.8c0-.15.06-.3.18-.42.23-.22.59-.21.81.02.02.02,1.89,1.95,3.81,2.11.32.03.55.3.52.62-.03.32-.3.55-.62.52-2.36-.19-4.46-2.37-4.55-2.46-.11-.11-.16-.25-.16-.4Z"/>
      </g>
      <g>
        <path class="cls-73" d="m202.31,108.77h0c0-.62.16-1.82,1.2-3.01,1.53-1.74,3.47-1.44,3.56-1.43.27.05.47.28.48.56v.03c0,.39-.06,2.41-1.21,3.57-1.24,1.25-3.33,1.26-3.42,1.26-.27,0-.51-.19-.56-.46,0-.04-.04-.23-.04-.53Zm4.06-3.31c-.5.05-1.3.26-2,1.05-.69.78-.87,1.56-.91,2.05.58-.08,1.48-.3,2.06-.88.54-.55.78-1.5.85-2.23Z"/>
        <path class="cls-76" d="m202.31,113.19c0-.3.04-.49.04-.53.05-.27.29-.46.56-.46.09,0,2.18.01,3.42,1.26,1.16,1.16,1.21,3.18,1.21,3.57v.03c0,.28-.21.51-.48.56-.08.01-2.02.32-3.56-1.43-1.05-1.19-1.2-2.4-1.2-3.01Zm4.06,3.31c-.08-.72-.31-1.68-.85-2.23-.57-.58-1.48-.79-2.06-.87.04.49.22,1.26.91,2.05.7.79,1.49,1.01,2,1.05Z"/>
      </g>
      <g>
        <path class="cls-74" d="m196.88,108.77h0c0-.62.16-1.82,1.2-3.01,1.53-1.74,3.47-1.44,3.56-1.43.27.05.47.28.48.56v.03c0,.39-.06,2.41-1.21,3.57-1.24,1.25-3.33,1.26-3.42,1.26-.27,0-.51-.19-.56-.46,0-.04-.04-.23-.04-.53Zm4.06-3.31c-.5.05-1.3.26-2,1.05-.69.78-.87,1.56-.91,2.05.58-.08,1.48-.3,2.06-.88.54-.55.78-1.5.85-2.23Z"/>
        <path class="cls-78" d="m196.88,113.19c0-.3.04-.49.04-.53.05-.27.29-.46.56-.46.09,0,2.18.01,3.42,1.26,1.16,1.16,1.21,3.18,1.21,3.57v.03c0,.28-.21.51-.48.56-.08.01-2.02.32-3.56-1.43-1.05-1.19-1.2-2.4-1.2-3.01Zm4.06,3.31c-.08-.72-.31-1.68-.85-2.23-.57-.58-1.48-.79-2.06-.87.04.49.22,1.26.91,2.05.7.79,1.49,1.01,2,1.05Z"/>
      </g>
    </g>
    <g>
      <path class="cls-75" d="m80.35,112.36c0-.32-.26-.57-.57-.57h-23.18c-.32,0-.57.26-.57.57s.26.57.57.57h23.18c.32,0,.57-.26.57-.57Z"/>
      <path class="cls-72" d="m56.7,112.3c0-1.48-1.21-2.81-2.76-3.02-.31-.04-.6.18-.64.49-.04.31.18.6.49.64.97.13,1.76.97,1.76,1.88s-.87,1.83-1.91,1.89c-.32.02-.56.29-.54.61.02.32.29.56.61.54,1.65-.1,2.98-1.46,2.98-3.04Z"/>
      <path class="cls-77" d="m53.92,114.71v-4.97c0-.32-.26-.57-.57-.57s-.57.26-.57.57v4.97c0,.32.26.57.57.57s.57-.26.57-.57Z"/>
      <path class="cls-69" d="m46.88,120.8c0-.16-.07-.33-.21-.44-2.41-2.01-3.79-4.96-3.79-8.1s1.33-5.96,3.64-7.97c.24-.21.26-.57.06-.81-.21-.24-.57-.26-.81-.06-2.56,2.22-4.03,5.44-4.03,8.83s1.53,6.75,4.2,8.97c.24.2.6.17.81-.07.09-.11.13-.24.13-.37Z"/>
      <path class="cls-71" d="m47.43,105.86c0-.16-.06-.31-.19-.43-.23-.21-.6-.19-.81.04-1.7,1.88-2.63,4.28-2.63,6.77s.89,4.78,2.51,6.63c.21.24.57.26.81.05.24-.21.26-.57.05-.81-1.44-1.65-2.23-3.73-2.23-5.88,0-2.2.83-4.33,2.34-6,.1-.11.15-.25.15-.38Z"/>
      <path class="cls-70" d="m53.55,109.77s0,0,0-.01c0-.32-.27-.57-.59-.56-.04,0-.09,0-.13,0-2.93,0-5.43-2.18-5.82-5.08-.04-.31-.33-.53-.64-.49-.31.04-.53.33-.49.64.47,3.46,3.46,6.07,6.96,6.07.05,0,.1,0,.15,0,.31,0,.56-.26.56-.57Z"/>
      <path class="cls-68" d="m53.55,114.94c0-.31-.25-.57-.56-.57-.05,0-.1,0-.15,0-3.5,0-6.49,2.61-6.96,6.07-.04.31.18.6.49.64.31.04.6-.18.64-.49.39-2.9,2.89-5.08,5.82-5.08.04,0,.09,0,.13,0,.32,0,.58-.24.59-.56,0,0,0,0,0-.01Z"/>
      <path class="cls-66" d="m53.6,112.36c0-.32-.26-.57-.57-.57h-8.02c-.32,0-.57.26-.57.57s.26.57.57.57h8.02c.32,0,.57-.26.57-.57Z"/>
      <path class="cls-67" d="m53.36,111.03s0-.04,0-.06c-.03-.31-.31-.54-.63-.51-.08,0-.15.01-.23.02h-.04c-2.47.02-5.63-.84-6.46-2.28-.16-.27-.51-.37-.78-.21-.27.16-.37.51-.21.78,1.09,1.89,4.66,2.89,7.48,2.86.01,0,.02,0,.03,0h.05c.09,0,.18-.02.26-.03.3-.03.52-.28.52-.57Z"/>
      <path class="cls-63" d="m53.36,113.69c0-.29-.22-.54-.52-.57-.09,0-.18-.02-.26-.02h-.05s-.02,0-.03,0c-2.81-.03-6.39.96-7.48,2.86-.16.27-.06.62.21.78.27.16.62.06.78-.21.82-1.44,3.99-2.3,6.45-2.28h.03c.08,0,.15.01.23.02.31.03.6-.2.63-.51,0-.02,0-.04,0-.06Z"/>
      <g>
        <path class="cls-62" d="m67.01,112.06c0-.23-.14-.45-.36-.53-.04-.02-4.09-1.66-6.6-6.54-.14-.28-.49-.39-.77-.25-.28.14-.39.49-.25.77,2.72,5.28,7.02,7.01,7.2,7.08.29.12.63-.03.74-.33.03-.07.04-.14.04-.21Z"/>
        <path class="cls-65" d="m60.56,103.33c0-.45-.13-.9-.36-1.28-.17-.27-.52-.35-.79-.18-.27.17-.35.52-.18.79.16.25.22.54.18.83-.04.34-.21.64-.48.85-.27.21-.6.3-.94.26-.38-.05-.71-.26-.92-.58-.17-.27-.53-.34-.79-.17-.27.17-.34.53-.17.79.39.61,1.03,1,1.74,1.09.64.08,1.28-.1,1.79-.5.51-.4.83-.97.91-1.62.01-.1.02-.19.02-.29Z"/>
        <path class="cls-64" d="m60.28,101.79c0-.12-.04-.25-.12-.35-.19-.25-.55-.3-.8-.1l-3.45,2.67c-.25.19-.3.55-.1.8.19.25.55.3.8.1l3.45-2.67c.15-.11.22-.28.22-.45Z"/>
        <path class="cls-60" d="m61.12,94.47c0-.25-.16-.48-.42-.55-.47-.14-.97-.23-1.46-.29-5.13-.62-9.63,2.9-10.25,8.02-.05.42-.07.84-.07,1.26,0,.32.26.57.58.57.31,0,.57-.26.57-.57h0c0-.37.02-.74.06-1.11.54-4.48,4.49-7.57,8.98-7.02.43.05.87.14,1.28.26.3.09.62-.09.71-.39.02-.05.02-.11.02-.16Z"/>
        <path class="cls-59" d="m57.07,104.31c0-.12-.04-.23-.11-.34-.7-.96-2.94-1.98-3.98-2.1-1.36-.16-2.72.19-3.82.99-.26.19-.31.54-.13.8.19.26.54.31.8.13.87-.63,1.94-.91,3.01-.78.85.1,2.74,1.01,3.19,1.64.19.26.54.31.8.13.15-.11.24-.29.24-.46Z"/>
        <path class="cls-61" d="m61.2,94.86c0-.12-.04-.24-.11-.34-.19-.25-.55-.31-.8-.12-1.06.78-1.88,2.15-2.15,3.57-.27,1.44.12,3.05,1.04,4.31.19.25.55.31.8.12.25-.19.31-.55.12-.8-.74-1-1.06-2.28-.84-3.41.21-1.13.88-2.25,1.7-2.86.15-.11.23-.29.23-.46Z"/>
        <path class="cls-58" d="m59.29,96.28c0-.3-.23-.55-.53-.57-2.39-.17-4.36.57-5.86,2.22-1.05,1.15-1.72,2.54-1.96,4.02-.05.31.17.61.48.65.31.05.61-.17.65-.48.2-1.26.77-2.45,1.67-3.43,1.27-1.39,2.89-1.99,4.94-1.85.32.02.59-.21.61-.53,0-.01,0-.03,0-.04Z"/>
        <path class="cls-51" d="m58.46,102.89c0-.13-.04-.26-.13-.37l-3.28-3.9c-.2-.24-.57-.27-.81-.07-.24.2-.27.57-.07.81l3.28,3.9c.2.24.57.27.81.07.13-.11.2-.28.2-.44Z"/>
        <path class="cls-52" d="m59.2,102.44c0-.12-.03-.23-.11-.33-.02-.02-1.67-2.35-1.67-4.31h0c0-.33-.26-.58-.57-.59-.32,0-.57.25-.57.57h0c0,2.35,1.8,4.89,1.88,4.99.18.26.54.32.8.13.16-.11.24-.29.24-.47Z"/>
        <path class="cls-49" d="m57.94,103.37c0-.14-.05-.28-.16-.4-.09-.09-2.19-2.27-4.55-2.46-.32-.03-.59.21-.62.52-.03.32.21.59.52.62,1.93.16,3.79,2.09,3.81,2.11.22.23.58.24.81.02.12-.11.18-.26.18-.42Z"/>
      </g>
      <g>
        <path class="cls-50" d="m67.01,112.53c0-.06-.01-.13-.03-.2-.11-.3-.44-.45-.73-.34-.18.07-4.49,1.67-7.22,6.96-.14.28-.03.63.25.77.28.14.63.03.77-.25,2.51-4.87,6.55-6.39,6.59-6.41.23-.08.38-.3.38-.54Z"/>
        <path class="cls-56" d="m60.56,121.13c0-.1,0-.19-.02-.29-.08-.64-.4-1.22-.91-1.62-.51-.4-1.14-.58-1.79-.5-.72.09-1.35.48-1.74,1.09-.17.27-.1.62.17.79.27.17.62.1.79-.17.21-.32.54-.53.92-.58.34-.04.67.05.94.26.27.21.44.51.48.85.04.29-.03.58-.18.83-.17.27-.08.62.18.79.27.17.62.08.79-.18.24-.38.36-.83.36-1.28Z"/>
        <path class="cls-57" d="m60.28,122.67c0-.17-.08-.34-.22-.45l-3.45-2.67c-.25-.19-.61-.15-.8.1-.19.25-.15.61.1.8l3.45,2.67c.25.19.61.15.8-.1.08-.1.12-.23.12-.35Z"/>
        <path class="cls-54" d="m61.12,129.99c0-.05,0-.1-.02-.16-.09-.3-.4-.48-.71-.39-.42.12-.85.21-1.28.26-4.49.54-8.43-2.54-8.97-7.02-.04-.37-.07-.74-.06-1.1h0c0-.32-.25-.58-.57-.58-.32,0-.58.25-.58.57,0,.42.02.84.07,1.26.62,5.12,5.12,8.65,10.25,8.02.49-.06.99-.16,1.46-.29.25-.07.42-.3.42-.55Z"/>
        <path class="cls-55" d="m57.07,120.15c0-.18-.08-.35-.24-.46-.26-.19-.61-.13-.8.13-.45.62-2.34,1.53-3.19,1.64-1.07.13-2.14-.15-3.01-.78-.26-.19-.61-.13-.8.13-.19.26-.13.61.13.8,1.11.81,2.47,1.16,3.82.99,1.04-.13,3.29-1.14,3.98-2.1.07-.1.11-.22.11-.34Z"/>
        <path class="cls-53" d="m61.2,129.73c0-.18-.08-.35-.23-.46-.78-.57-1.48-1.8-1.7-2.98-.21-1.14.1-2.41.84-3.41.19-.25.13-.61-.12-.8-.25-.19-.61-.13-.8.12-.93,1.25-1.32,2.86-1.04,4.31.28,1.47,1.14,2.95,2.15,3.69.25.19.61.13.8-.12.08-.1.11-.22.11-.34Z"/>
        <path class="cls-119" d="m59.29,128.31s0-.03,0-.04c-.02-.32-.3-.55-.61-.53-1.92.14-3.63-.54-4.94-1.97-.9-.98-1.47-2.16-1.67-3.43-.05-.31-.34-.53-.65-.48-.31.05-.53.34-.48.65.23,1.49.91,2.88,1.96,4.02,1.55,1.7,3.58,2.51,5.86,2.34.3-.02.53-.27.53-.57Z"/>
        <path class="cls-114" d="m58.46,121.57c0-.16-.07-.33-.2-.44-.24-.2-.6-.17-.81.07l-3.28,3.9c-.2.24-.17.6.07.81.24.2.6.17.81-.07l3.28-3.9c.09-.11.13-.24.13-.37Z"/>
        <path class="cls-115" d="m59.2,122.03c0-.18-.08-.35-.24-.47-.26-.18-.62-.13-.8.13-.08.11-1.88,2.65-1.88,4.98h0c0,.33.26.59.57.59.32,0,.57-.26.57-.57h0c0-1.98,1.65-4.3,1.67-4.32.07-.1.11-.22.11-.33Z"/>
        <path class="cls-113" d="m57.94,121.09c0-.15-.06-.3-.18-.42-.23-.22-.59-.21-.81.02-.02.02-1.89,1.95-3.81,2.11-.32.03-.55.3-.52.62.03.32.3.55.62.52,2.36-.19,4.46-2.37,4.55-2.46.11-.11.16-.25.16-.4Z"/>
      </g>
      <g>
        <path class="cls-112" d="m71.49,110.59c-.05.27-.29.46-.56.46-.09,0-2.18-.01-3.42-1.26-1.16-1.16-1.21-3.18-1.21-3.57v-.03c0-.28.21-.51.48-.56.08-.01,2.02-.32,3.56,1.43,1.05,1.19,1.2,2.4,1.2,3.01h0c0,.3-.04.49-.04.53Zm-3.17-1.61c.58.58,1.48.8,2.06.88-.04-.49-.22-1.27-.91-2.05-.7-.79-1.49-1.01-2-1.05.08.72.31,1.68.85,2.23Z"/>
        <path class="cls-111" d="m70.33,117.49c-1.53,1.74-3.47,1.44-3.56,1.43-.27-.05-.47-.28-.48-.56v-.03c0-.39.06-2.41,1.21-3.57,1.24-1.25,3.33-1.26,3.42-1.26.27,0,.51.19.56.46,0,.04.04.23.04.53,0,.61-.16,1.82-1.2,3.01Zm-.86-.76c.69-.78.87-1.56.91-2.05-.58.08-1.48.3-2.06.87-.54.55-.78,1.5-.85,2.23.5-.05,1.3-.26,2-1.05Z"/>
      </g>
      <g>
        <path class="cls-117" d="m76.92,110.59c-.05.27-.29.46-.56.46-.09,0-2.18-.01-3.42-1.26-1.16-1.16-1.21-3.18-1.21-3.57v-.03c0-.28.21-.51.48-.56.08-.01,2.02-.32,3.56,1.43,1.05,1.19,1.2,2.4,1.2,3.01h0c0,.3-.04.49-.04.53Zm-3.17-1.61c.58.58,1.48.8,2.06.88-.04-.49-.22-1.27-.91-2.05-.7-.79-1.49-1.01-2-1.05.08.72.31,1.68.85,2.23Z"/>
        <path class="cls-116" d="m75.76,117.49c-1.53,1.74-3.47,1.44-3.56,1.43-.27-.05-.47-.28-.48-.56v-.03c0-.39.06-2.41,1.21-3.57,1.24-1.25,3.33-1.26,3.42-1.26.27,0,.51.19.56.46,0,.04.04.23.04.53,0,.61-.16,1.82-1.2,3.01Zm-.86-.76c.69-.78.87-1.56.91-2.05-.58.08-1.48.3-2.06.87-.54.55-.78,1.5-.85,2.23.5-.05,1.3-.26,2-1.05Z"/>
      </g>
    </g>
    <polygon class="cls-14" points="199.63 218.88 74.8 218.88 12.38 110.77 74.8 2.65 199.63 2.65 262.05 110.77 199.63 218.88"/>
    <g>
      <path class="cls-118" d="m283.26,291.04v-8.6h-3.18v-.79h7.22v.79h-3.17v8.6h-.88Z"/>
      <path class="cls-27" d="m288.4,291.04v-9.39h1.2l3.24,8.2h.03l3.17-8.2h1.23v9.39h-.85v-8.18h-.03c-.17.5-.32.92-.45,1.27l-2.72,6.91h-.77l-2.75-6.91-.46-1.27h-.03v8.18h-.81Z"/>
    </g>
    <g>
      <path class="cls-25" d="m109.51,318.78h2.3c.17,1.59,1.21,2.39,3.1,2.39,1.34,0,2.45-.58,2.45-1.81,0-1.33-1.23-1.63-3.18-2.07-2.3-.52-4.23-1.13-4.23-3.6,0-2.34,1.92-3.52,4.56-3.52,2.87,0,4.53,1.38,4.76,3.65h-2.24c-.18-1.21-1.09-1.89-2.55-1.89-1.38,0-2.29.58-2.29,1.56,0,1.15,1.19,1.44,3.1,1.84,2.29.5,4.39,1.18,4.39,3.85,0,2.45-2.06,3.83-4.79,3.83-3.38,0-5.29-1.71-5.39-4.23Z"/>
      <path class="cls-26" d="m121.51,310.39h9.02v1.96h-6.73v3.05h5.95v1.84h-5.95v3.48h6.88v2.01h-9.17v-12.34Z"/>
      <path class="cls-23" d="m132.59,310.39h2.35l4.1,6.47c.66,1.08,1.54,2.87,1.54,2.87h.05s-.13-1.92-.13-3.15v-6.19h2.17v12.34h-2.35l-4.08-6.43c-.68-1.09-1.56-2.88-1.56-2.88h-.03s.12,1.92.12,3.15v6.17h-2.17v-12.34Z"/>
      <path class="cls-24" d="m144.28,318.78h2.3c.17,1.59,1.21,2.39,3.1,2.39,1.34,0,2.45-.58,2.45-1.81,0-1.33-1.23-1.63-3.18-2.07-2.3-.52-4.23-1.13-4.23-3.6,0-2.34,1.92-3.52,4.56-3.52,2.87,0,4.53,1.38,4.76,3.65h-2.24c-.18-1.21-1.09-1.89-2.55-1.89-1.38,0-2.29.58-2.29,1.56,0,1.15,1.19,1.44,3.1,1.84,2.29.5,4.39,1.18,4.39,3.85,0,2.45-2.06,3.83-4.79,3.83-3.38,0-5.29-1.71-5.39-4.23Z"/>
      <path class="cls-30" d="m156.28,310.39h9.02v1.96h-6.73v3.05h5.95v1.84h-5.95v3.48h6.88v2.01h-9.17v-12.34Z"/>
      <path class="cls-29" d="m166.58,318.78h2.3c.17,1.59,1.21,2.39,3.1,2.39,1.34,0,2.45-.58,2.45-1.81,0-1.33-1.23-1.63-3.18-2.07-2.3-.52-4.23-1.13-4.23-3.6,0-2.34,1.92-3.52,4.56-3.52,2.87,0,4.53,1.38,4.76,3.65h-2.24c-.18-1.21-1.09-1.89-2.55-1.89-1.38,0-2.29.58-2.29,1.56,0,1.15,1.19,1.44,3.1,1.84,2.29.5,4.39,1.18,4.39,3.85,0,2.45-2.06,3.83-4.79,3.83-3.38,0-5.29-1.71-5.39-4.23Z"/>
      <path class="cls-31" d="m186.18,317.85l-4.33-7.46h2.54l1.74,3.12c.55.99,1.23,2.64,1.23,2.64h.03s.7-1.63,1.24-2.64l1.76-3.12h2.44l-4.34,7.5v4.84h-2.3v-4.87Z"/>
      <path class="cls-28" d="m192.68,316.59c0-3.7,2.34-6.43,6.07-6.43s6.07,2.74,6.07,6.43-2.34,6.42-6.07,6.42-6.07-2.74-6.07-6.42Zm9.78,0c0-2.57-1.26-4.54-3.7-4.54s-3.75,1.97-3.75,4.54,1.29,4.48,3.75,4.48,3.7-1.92,3.7-4.48Z"/>
      <path class="cls-22" d="m206.47,318.57v-8.18h2.29v8.14c0,1.66.91,2.5,2.67,2.5s2.62-.88,2.62-2.54v-8.11h2.3v8.18c0,2.92-1.91,4.38-4.94,4.38s-4.94-1.44-4.94-4.38Z"/>
      <path class="cls-32" d="m218.49,310.39h5.82c2.3,0,3.96,1.31,3.96,3.46,0,1.48-.66,2.54-2.27,3.05v.05c1.31.4,1.79,1.14,1.92,2.67.2,1.81.22,2.82.55,2.99v.12h-2.32c-.31-.2-.31-1.16-.45-2.82-.13-1.46-.81-2.09-2.29-2.09h-2.64v4.91h-2.29v-12.34Zm2.29,5.67h2.99c1.44,0,2.21-.73,2.21-1.87,0-1.23-.65-1.92-2.12-1.92h-3.07v3.8Z"/>
      <path class="cls-19" d="m233.73,318.78h2.3c.17,1.59,1.21,2.39,3.1,2.39,1.34,0,2.45-.58,2.45-1.81,0-1.33-1.23-1.63-3.18-2.07-2.3-.52-4.23-1.13-4.23-3.6,0-2.34,1.92-3.52,4.56-3.52,2.87,0,4.53,1.38,4.76,3.65h-2.24c-.18-1.21-1.09-1.89-2.55-1.89-1.38,0-2.29.58-2.29,1.56,0,1.15,1.19,1.44,3.1,1.84,2.29.5,4.39,1.18,4.39,3.85,0,2.45-2.06,3.83-4.79,3.83-3.38,0-5.29-1.71-5.39-4.23Z"/>
      <path class="cls-33" d="m245.73,310.39h2.29v2.85c0,.98-.05,1.97-.08,2.62l5.24-5.47h2.79l-4.84,4.94,5.19,7.4h-2.69l-4.15-5.92-1.46,1.48v4.44h-2.29v-12.34Z"/>
      <path class="cls-21" d="m257.55,310.39h2.3v12.34h-2.3v-12.34Z"/>
      <path class="cls-20" d="m262.2,310.39h2.35l4.1,6.47c.66,1.08,1.54,2.87,1.54,2.87h.05s-.13-1.92-.13-3.15v-6.19h2.17v12.34h-2.35l-4.08-6.43c-.68-1.09-1.56-2.88-1.56-2.88h-.03s.12,1.92.12,3.15v6.17h-2.17v-12.34Z"/>
    </g>
  </g>
</svg>