<?xml version="1.0" encoding="UTF-8"?>
<svg id="Capa_2" data-name="Capa 2" xmlns="http://www.w3.org/2000/svg" viewBox="0 0 255.8 221.53">
  <defs>
    <style>
      .cls-1, .cls-2, .cls-3 {
        fill: #010101;
      }

      .cls-2 {
        stroke: #fff;
      }

      .cls-2, .cls-3, .cls-4, .cls-5 {
        stroke-miterlimit: 10;
      }

      .cls-2, .cls-3, .cls-5 {
        stroke-width: .47px;
      }

      .cls-3, .cls-5 {
        stroke: #929292;
      }

      .cls-4 {
        stroke: #000;
        stroke-width: 5.31px;
      }

      .cls-4, .cls-5 {
        fill: none;
      }
    </style>
  </defs>
  <g id="Capa_1-2" data-name="Capa 1">
    <path class="cls-1" d="m140.98,47.57s3.69.06,4.34,1.09,10.5,16.08,10.5,16.08c0,0,14.14-13.72,14.67-13.95s7.45-.57,7.63-.23.86.86-.35,1.21c0,0,.73,1.12-.15,1.77,0,0,.5.48-.37,1.52,0,0,.35,1.21-.52,1.38,0,0-.17,1.73-1.04,1.73,0,0-1.56-1.73-3.28-1.38,0,0-.83.17-.85,1.64,0,0-.03.64-.63.8s-3.86,2.41-11.22,10.79c0,0-3.41,3.44-5.3,3.4s-11.83-13.53-11.83-13.53c0,0,.43,2.26,0,3.12l-4.94-.07s1.09-14.56,3.32-15.37Z"/>
    <path class="cls-1" d="m117.09,47.78s-2.67-.13-3.23.03-2.17.42-3.87,3.66-6.71,15.17-6.71,15.17l-15.36-15.18h-7.17s-1.65,1.3.93,1.59c0,0-.43.85.39,1.35,0,0-.63.59.18,1.49,0,0-.67.94.5,1.26,0,0-.84,1.3,1.21,1.25s2.5-.59,4.78.19c0,0,2.51,3.08,6.37,9.37,3.86,6.29,6.44,8.15,7.49,8.51s1.63,1.26,3.93-1,10.08-15.59,10.08-15.59c0,0,.05,2.29.37,3.05h3.11l-1.6-15.18-1.38.02Z"/>
    <path class="cls-1" d="m81.58,53.72s-3.41-.56-4.77,1.43c-1.36,1.99-.07,5.25,1.02,5.96s3.5,1.39,5.06-.68c0,0,.93-1.27,1.07-2.02,0,0,.96,3.29.98,4.64,0,0-1.13,1.6-4.27,1.65s-4.6-1.59-5.08-2.24-2.21-2.2-1.69-6.18c.52-3.98,5.76-4.92,6.6-4.79,0,0,1.7.73,1.09,2.24Z"/>
    <path class="cls-2" d="m120.69,53.37l2.3,9.57h11.59l3.5-10.51s-16.73-.23-17.38.94Z"/>
    <path class="cls-3" d="m137.81,52.87l-3.24,10.07h3.08l2.31-12.38s-2.37.47-2.16,2.31Z"/>
    <path class="cls-2" d="m120.32,52.73c.68-.57,1.97-2.51,1.97-2.51"/>
    <path class="cls-3" d="m118.89,51.48l1.18,11.46h2.92l-2.3-9.57s-.01-2.2-1.8-1.9Z"/>
    <path class="cls-3" d="m124.93,40.23s-4.66-8.97-2.18-12.97,8.41-2.77,8.41-2.77c0,0,5.27,1.35,5.38,6.02.11,4.67-3.35,10.03-3.35,10.03,0,0-3.01,4.73-8.25-.31Z"/>
    <path class="cls-5" d="m127.89,29.96s-1.61-2-4.9.14"/>
    <path class="cls-5" d="m127.98,30.9s-1.46,1.43-4.27,0c0,0,1.49-2.03,4.27,0Z"/>
    <path class="cls-5" d="m124.51,30.27s-.28.99-.04.96c0,0,.47.21,1.05.27s1.19-.02,1.19-.02c0,0,.28-.83.09-1.24,0,0-1.1-.56-2.29.03Z"/>
    <path class="cls-5" d="m130.97,30.9s1.92-2.12,4.27,0c0,0-1.46,1.43-4.27,0Z"/>
    <path class="cls-5" d="m132.37,30.07s-.6.81-.15,1.32c0,0,1.13.38,2.08.02,0,0,.23-.99.07-1.11s-.91-.5-2-.22Z"/>
    <path class="cls-5" d="m135.5,29.82s-3.1-1.99-4.74.69c0,0-.09,4-.04,4.25s.39,1.46-.3,1.8-1.78.19-2.01,0c0,0-.93.12-1.02-.55"/>
    <path class="cls-5" d="m130.46,36.54s1.91.12,1.19-1.31"/>
    <path class="cls-5" d="m126.83,38.11s1.22-.85,1.8-.68.4.17.75.17.58-.17.81-.17,1.62.68,1.62.68c0,0-.76,1.46-1.51,1.6s-1.67.18-2.25-.27-1.22-1.33-1.22-1.33Z"/>
    <path class="cls-5" d="m126.83,38.11s.88.36,2.14.36h1.88c.42,0,.94-.36.94-.36"/>
    <path class="cls-1" d="m124.93,40.23s1.32,5.56-2.91,6.74-5.89-.9-6.18-2.37c-.29-1.47.06-4.94,3.51-4.59,0,0,1.04.28,1.3.75,0,0-1.21-1.83-1.83-2.93-1.02-1.79-2.09-5.52-1.99-8.24.1-2.72.62-6.86,3.91-9.46,3.28-2.59,7.07-2.77,9.85-2.77s7.46,1.69,9.35,3.79c1.89,2.09,2.75,3.28,3.18,5.71.43,2.43.15,6.65-.92,9.9-1.07,3.25-1.59,3.94-1.59,3.94,0,0,2.83,1.78,1.76,4.43s-3.59,2.6-3.97,2.63-4.42.04-5.17-3.16c-.75-3.21.12-4.35.29-4.64s2.62-3.98,2.95-8.18c.33-4.21-2.42-5.86-2.42-5.86,0,0-2.13-2.15-6.26-1.55s-5.16,3.04-5.51,3.9-.32,3.71.18,5.39,1.12,3.99,2.46,6.56Z"/>
    <path class="cls-5" d="m140.61,40.71c-.17-.08-3.11-1.21-4.04,1.53-.97,2.86,1.56,2.84,1.99,2.72s1.44-.59.68-2.17"/>
    <line class="cls-5" x1="122.24" y1="32.56" x2="117.21" y2="32.91"/>
    <line class="cls-5" x1="122.09" y1="31.36" x2="117.12" y2="31.36"/>
    <line class="cls-5" x1="122.09" y1="29.92" x2="116.78" y2="29.97"/>
    <line class="cls-5" x1="122.92" y1="27.02" x2="118.24" y2="23.23"/>
    <line class="cls-5" x1="123.71" y1="26.11" x2="119.28" y2="21.5"/>
    <line class="cls-5" x1="124.81" y1="25.33" x2="120.66" y2="20.29"/>
    <line class="cls-5" x1="128.04" y1="24.27" x2="127.58" y2="17.53"/>
    <line class="cls-5" x1="129.51" y1="24.27" x2="129.48" y2="17.44"/>
    <line class="cls-5" x1="130.91" y1="24.46" x2="131.73" y2="17.36"/>
    <line class="cls-5" x1="133.6" y1="25.54" x2="138.11" y2="19.68"/>
    <line class="cls-5" x1="134.51" y1="26.26" x2="139.93" y2="21.3"/>
    <line class="cls-5" x1="136.42" y1="30.25" x2="143.31" y2="29.97"/>
    <line class="cls-5" x1="136.48" y1="31.55" x2="143.31" y2="31.36"/>
    <line class="cls-5" x1="136.37" y1="32.73" x2="143.06" y2="32.9"/>
    <line class="cls-5" x1="141.24" y1="22.89" x2="135.43" y2="27.37"/>
    <path class="cls-5" d="m120.65,40.77s.98,1.11.36,2.69c0,0-.45,1.75-2.35,1.23-1.7-.46-.59-3.08.11-2.68"/>
    <path class="cls-3" d="m124.93,40.23s.72,3.67-.62,5.1c0,0,3.32,2.98,6.44,1.95s2.73-1.95,2.73-1.95c0,0-.99-2.37-.3-4.79,0,0-2.84,4.73-8.25-.31Z"/>
    <path class="cls-3" d="m124.32,45.33s-.58.95-1.56,1.37c0,0,2.93,2.85,5.56,2.93s4.78-.88,5.74-1.65c.86-.69.96-1,.96-1,0,0-1.22-.66-1.52-1.64,0,0,.22,1.1-3.06,2.04,0,0-2.52.84-6.1-2.04Z"/>
    <path class="cls-3" d="m122.75,46.69s-.96.45-1.83.52c0,0,1.87,2.36,4.13,3.38s4.39,1.03,6.09.68,3.47-1.47,3.97-1.95,1.91-1.64,1.91-1.64c0,0-1.58-.32-2.01-.7,0,0-.96,1.18-2.45,1.87-.9.42-2.37.88-4.25.78s-4.4-1.62-5.56-2.93Z"/>
    <path class="cls-3" d="m120.99,47.31c-.05-.06-.12-.09-.2-.08-.22.03-.71.08-.96.09-.05,0-.08.06-.06.1,0,.01.01.02.02.04.07.13.19.22.33.23.33.03.8.18.92.84.03.17.15.32.32.37.36.1.9.37.81,1.17-.01.12.1.22.22.19.44-.11,1.28-.22,1.51.56.06.19.25.29.44.24.26-.07.62-.05.9.34.12.17.34.22.52.13.29-.15.73-.24,1.12.23.14.17.38.21.56.09.33-.23.87-.41,1.35.24.06.09.2.08.25-.01.22-.35.92-.56,1.53-.16.18.12.43.08.56-.1.23-.3.61-.64,1.12-.41.2.09.44,0,.53-.19.17-.33.51-.71,1.13-.55.21.05.43-.09.49-.3.1-.41.38-.92,1.16-.84.22.02.43-.12.46-.33.04-.28.24-.6.88-.59.24,0,.42-.21.39-.44,0-.07-.01-.14,0-.21,0-.11-.06-.21-.16-.24h0c-.08-.02-.16,0-.21.06-.45.47-2.58,2.59-4.92,3.26-2.63.75-4.13.42-5.02.24s-3.27-1.09-4-1.96c-.06-.07-.13-.14-.21-.2-.29-.23-1-.85-1.79-1.8Z"/>
    <path class="cls-3" d="m119.63,47.31s-1.1-.01-1.55-.24c-.06-.03-.12-.03-.18,0-.35.15-1.38.7-.39,1.66.06.06.08.16.05.24-.17.42-.51,1.69,1.15,2.12.1.02.16.11.17.21.03.43.2,1.52,1.28,1.34.12-.02.23.04.27.16.12.44.56,1.39,1.99,1.08.09-.02.18.01.23.08.25.31,1.04,1.09,2.11.64.08-.03.17-.01.24.04.26.23.98.74,1.72.38.07-.04.16-.02.23.03.28.21,1.06.69,1.84.17.06-.04.13-.05.2-.03.33.11,1.38.39,2.15-.09.05-.03.12-.05.18-.03.38.09,1.76.37,2.29-.56.04-.07.12-.11.2-.11.44,0,1.76-.04,1.95-.86.03-.11.13-.18.25-.17.55.07,1.92.09,2.16-1.25.02-.1.1-.18.2-.19.45-.04,1.63-.3,1.64-1.74,0-.08.04-.15.11-.2.52-.32,2.62-1.75.27-2.6-.05-.02-.1-.02-.15,0-.27.1-1.29.43-2.68.36-.12,0-.39-.08-.39.03,0,.14-.42.03-.35.17,0,0,0,0,0,0,.12.23-.04.5-.3.54s-.52.22-.48.84c0,0,.04.26-.38.17-.74-.17-1.09.18-1.27.94-.03.13-.1.24-.23.26,0,0-.01,0-.02,0,0,0-1.11-.15-1.41.68,0,0-.05.38-.29.09,0,0-.98-.75-1.4.49,0,0-.13.12-.29.04,0,0-1.02-.94-1.54-.25,0,0-.29.43-.4.3,0,0-.64-.99-1.5-.3,0,0-.23.21-.35,0,0,0-.31-1.03-1.21-.35,0,0,0,0-.01.01-.12.1-.31.04-.36-.11-.06-.19-.24-.59-.66-.59-.15,0-.32.17-.44.26-.1.07-.25.14-.25-.08,0-.18,0-1.31-1.51-.72-.08.03-.18-.01-.2-.1,0,0,0,0,0,0-.05-.17-.01-.36.08-.52.17-.3.22-.9-1.05-.75-.05,0-.11-.01-.14-.05,0,0,0,0,0,0-.08-.11-.11-.25-.09-.39.04-.26.32-.92-1.06-.75,0,0-.17,0-.17-.17,0-.1-.13-.11-.24-.14Z"/>
    <path class="cls-5" d="m117.57,48.98s1.37-.87,2.47-1.35"/>
    <path class="cls-5" d="m121.25,48.84c-1.21.69-2.43,2.44-2.43,2.44"/>
    <path class="cls-5" d="m122.29,50.22c-1.21.69-1.9,2.42-1.9,2.42"/>
    <path class="cls-5" d="m124.02,51.09s-.9,2.21-1.51,2.9"/>
    <path class="cls-5" d="m125.4,51.43s-.4,2.91-.57,3.25"/>
    <path class="cls-5" d="m127.13,51.78s.05,2.89-.35,3.33"/>
    <path class="cls-5" d="m128.86,52.12s.17,2.41-.03,3.17"/>
    <path class="cls-5" d="m130.93,51.95s.52,2.01.24,3.23"/>
    <path class="cls-5" d="m132.66,51.61s.92,1.57.95,2.93"/>
    <path class="cls-5" d="m134.22,50.74s1.16,1.17,1.51,2.73"/>
    <path class="cls-5" d="m135.94,49.53s1.66,1.16,2.19,2.55"/>
    <path class="cls-5" d="m136.81,48.32s2.52.86,3.14,1.88"/>
    <path class="cls-3" d="m116.96,62.94l25.64.07s.22.52-.28,1.9l-24.7-.07s-.64-1.29-.67-1.91Z"/>
    <path class="cls-5" d="m81.72,53.03s5.18-.83,4.85.24c0,0-.07.44-.55.5s-4.06.6-4.06.6c0,0-.78-.76-.24-1.34Z"/>
    <path class="cls-5" d="m82.14,55.86s4.62-.73,4.87-.87.62-1.19-.6-1.27-4.45.64-4.45.64c0,0-.63.42.18,1.49Z"/>
    <path class="cls-5" d="m82.78,57.13s3.3-.67,3.64-.78,1.03-.8.08-1.23l-4.35.74s-.57,1.11.64,1.26Z"/>
    <path class="cls-5" d="m83.79,58.49s2.07-.32,2.51-.76.81-.92.11-1.37l-3.64.78s-1.09,1.01,1.01,1.36Z"/>
    <path class="cls-1" d="m84.54,51.41s-1.28-2.74-1.13-3.43,1.42-2.79.88-5.54-1.41-3.45-1.41-3.45c0,0-2.85,3.02-1.68,6.87,0,0,.63,1.47.81,2.05s.29,1.87.29,1.87l1.47,1.63h.78Z"/>
    <path class="cls-5" d="m80.96,43.23s.84,1.32.86,2c0,0,.27-1.52.92-2.07l.65,1.71s.81-1.13,1.01-1.6"/>
    <path class="cls-1" d="m83.76,51.42l-1.47-1.63s-2.19-1.3-2.36-1.73-.35-8.9-.35-8.9c0,0-4-.83-6.84,1.4s-2.49,6.05-2.49,6.05c0,0,3.1-.73,5.96,1.19l2.39,1.5,3.4,2.13h1.76Z"/>
    <polyline class="cls-5" points="79.94 48.06 78.73 48.15 78.61 49.29"/>
    <path class="cls-5" d="m79.59,39.16s-3.28,0-2.42,4.67c0,0-2.79-2.9-4.42-3.27,0,0,2.17,4.67,2.69,5.18,0,0-2.42-1.37-5.19.87"/>
    <path class="cls-1" d="m82.01,51.42l-5.79-3.62s-4.23-1.03-6.82.87c0,0,2.68,2.59,4.97,2.24s4.07-.6,5.08-.04,1.3.59,1.3.59l1.26-.05Z"/>
    <path class="cls-5" d="m72.75,50.75s2.4-.51,2.63-.6c0,0-1.84-.61-2.01-.78,0,0,1.73-.52,2.07-.52,0,0-.1-.73-1.35-1.31"/>
    <path class="cls-1" d="m83.95,58.4s1.87,4.27,1.35,17.75c0,0,.01,1.1,1.22.55,0,0-.35,1.35,1.38.83,0,0,.08-9.5-.05-11.49s-.39-7.15-.87-7.85l-3.03.21Z"/>
    <path class="cls-5" d="m85.47,58.3s.88,1.15,1.04,6.05c.17,4.9,0,12.36,0,12.36"/>
    <path class="cls-5" d="m80.35,52.6s-3.36.04-4.39,2.29"/>
    <path class="cls-5" d="m84.6,60.55s-2.42,2.29-4.32,2.12"/>
    <path class="cls-5" d="m84.76,61.73s-2.06,2.67-4.82,1.98"/>
    <path class="cls-5" d="m176.74,56.45s-3.72-.86-4.02-1.04-1.51-.99.22-1.18c0,0,3.11.84,4.32.84,0,0-3.8-.47-4.32-.84s-1.02-1.01,1.22-1.21c0,0,2.63.57,3.47.53,0,0-4.17-.21-4.69-1.25s4.84-.52,4.84-.52"/>
    <path class="cls-5" d="m172.42,56.79s-1.48-1.04.3-1.38"/>
    <path class="cls-1" d="m173.55,56.83s-2.39,5.6-2.79,14.36-.22,20.02-.22,20.02l.16,3.78s-1.56-8.94-1.56-11.73.08-11.42.47-13.58c.4-2.17,1.7-11.38,2.09-12.05s.57-1.1,1.86-.8Z"/>
    <path class="cls-1" d="m173.55,56.83s1.46.48,2.15,1.34c0,0-.99,1.6-1.38,4.67-.62,4.82-.68,16.71-.35,20.74.17,2.07,1.21,10.89,1.21,10.89,0,0-1.85-4.25-2.39-8.69-.54-4.44-.6-9.83-.62-10.86-.1-4.82.34-10.06.75-13.67.33-2.91.63-4.42.63-4.42Z"/>
    <path class="cls-1" d="m173.64,50.5s2.57-4.73,5.69-6.74c0,0,1.78-1.02,3.05-1.26s3.6-1.28,3.99-1.54c.12-.08.37-.23.77-.37.92-.31,2.64-.5,5.44.6,0,0,.96.21,1.29.03,0,0-1.01,1.07-2.87,1.84-.72.3-1.56.54-2.53.66,0,0-2.12.18-3.99-.13s-4.05.69-5.03,1.49-3.18,2.81-4.45,5.3l-1.37.11Z"/>
    <path class="cls-5" d="m191.01,43.08s-2.17-.12-3.21-.63c0,0,1.73-.86,2.42-.86,0,0-2.48-.32-2.88-.07,0,0,.98-.79,1.33-.79l-1.33-.19"/>
    <path class="cls-1" d="m176,50.38s2.79-4.03,5.74-4.95c2.95-.92,3.16-.72,3.83-.82s3.28-1.55,5.44-.82,3.68,1.21,3.68,1.21l-3.44.44s2.78,1.33,3.3,2.54c0,0-3.42-.63-4.13-.92,0,0,1.71,1.09,2.23,1.96,0,0-6-2.63-8.36-2.78s-4.95,1.31-6.77,4.21l-1.52-.06Z"/>
    <path class="cls-1" d="m142.32,64.92s-.17,1.14-1.89,4.29-1.04,7.87,0,11.3,4.68,12.42,3.81,17.61c-.86,5.19-5.81,21.78-6.1,24.11s-.93,8.75-.09,11.85.58,9.01-.42,14.18-2.98,10.18-2.76,13.38.19,5.62,2.88,9.94c0,0,.62,1.21-.42,1.56,0,0-.31.53-1.02.35,0,0-.95.52-1.52.34,0,0-.92.52-1.61.17,0,0-1.16.41-1.96.12,0,0-2.88.75-3.74-.64,0,0-1.73,1.73-3.11.35,0,0-1.73,1.04-2.59-.17,0,0-.69.52-1.21-.35,0,0-1.01.38-1.11-.93,0,0-.79-.61.07-1.4s2.67-3.45,2.89-4.11.72-5.28.3-6.68-2.14-8.62-2.41-10.89c-.26-2.27-1.55-9.34-1.08-13.49s.98-7.23.99-9.5c0-2.26-.87-9.25-1.82-14.05-.95-4.8-2.85-16.04-1.29-21.92,1.56-5.88,4.59-12.85,4.72-14.12s1.09-2.46-1.03-6.36c0,0-.81-1.76-1.99-2.83,0,0-1-1.2-1.17-2.17l24.7.07Z"/>
    <path class="cls-5" d="m125.36,95.61s2.98,4.46,3.77,4.37,1.9-3.98,3.77-4.37"/>
    <path class="cls-5" d="m129.14,99.97s-.72,26.68-.48,29.89.01,7.34-.05,11.84.06,20.63,0,21.73.37,4.23-.02,6.55-.91,3.19-.91,3.19"/>
    <path class="cls-5" d="m128.62,160.32c-1.82-.58-5.63,0-5.63,0"/>
    <path class="cls-5" d="m123.09,161.34s3.72-.78,5.54,0"/>
    <path class="cls-5" d="m123.16,162.86s2.82-.81,5.38-.23"/>
    <path class="cls-5" d="m122.99,164.01s3.13-1.2,5.55-.17"/>
    <path class="cls-5" d="m135.1,160.32s-5.71-.93-6.48-.26"/>
    <path class="cls-5" d="m128.63,161.08s-.35-.69,6.44.26"/>
    <path class="cls-5" d="m128.62,162.43s2.85-.81,6.48.22"/>
    <path class="cls-5" d="m128.6,163.72s2.58-1.51,6.71,0"/>
    <path class="cls-5" d="m124.36,173.65s.21-1.16.9-1.5.6-.41.6-.41"/>
    <path class="cls-5" d="m121.77,173.65c0-.69.28-1.44,1.07-1.85.68-.36.69-.35.69-.35"/>
    <path class="cls-5" d="m120.56,173.3s.38-1.5.72-1.68.86-.69.86-.69"/>
    <path class="cls-5" d="m131.28,174.34s.35-1.5-.07-1.94-.78-.67-.78-.67"/>
    <path class="cls-5" d="m133.18,173.99s.42-1.16-.46-2.02c0,0-.41-.35-.65-.52"/>
    <path class="cls-5" d="m134.73,173.82s.21-1.5-.66-2.02l-.86-.52"/>
    <path class="cls-5" d="m136.29,173.48s.35-.81-.15-1.33-.87-1.06-1.03-1.13"/>
    <path class="cls-5" d="m119.45,172.37s.07-1.14,1.28-1.49l.17-.35"/>
    <path class="cls-5" d="m137.33,173.13s.17-1.04-.52-1.56-.77-.64-.77-.64"/>
    <path class="cls-1" d="m150.82,164.31s-7.01,8.18-12.93,8.76c-5.92.58-15.25.63-21.3-.52-6.05-1.15-15.04.99-18.5,3.38-3.46,2.39-9.02,6.51-15.4,17.84,0,0-4.48,6.84-6.21,6.15s-4.24-1.23-3.5,1.46,6.91-1.46,8.41-3.36,14.23-18.01,17.46-19.21,5.47-1.88,5.47-1.88c0,0-3.58,2.42-3.69,10.2,0,0-.02,2.77-4.91,4.84,0,0-1.13.04-1.45,2.27-.32,2.23-.41,5.05-.97,6.23s-1.4,2.46-.55,3.12,1.44-.51,1.4,1.46c0,0-.43,1.02,1.32.97s6.6-.05,6.6-.05c0,0,.77-3.37-2.91-3.85,0,0-1.74-.03-1.49-1.46.24-1.43.15-3.28.71-3.82s4.15-1.78,5.3-2.2,4.43-.94,6.16-2.67c0,0,3.11.69,1.9,6.4,0,0,4.84,5.01,5.19,5.7s.43,2.01,1.68,1.96,8.25.09,8.25.09c0,0,.9-3.57-2.79-3.67s-3.63-.67-4.35-1.42-3.12-3.53-2.27-5.17c.85-1.63,4.14-8.55,5.35-8.03s9.33,3.37,13.92,3.16c0,0-1.49,10.13-1.82,11.01-.34.88-.81,2.01.21,2.48s1.03.36.94.85-.15.81.65.73,6.65,0,6.65,0c0,0,.9-2.5-2.22-3.02s-2.07-1.21-1.9-1.73,3.42-9.85,4.65-10.2,1.44-.83,2.98,1.92c1.53,2.75,4.83,8.39,4.83,9.03s-.38,2.77,1.1,2.48,1.43,1.19,1.28,1.49l7.67.08s.24-3.37-3.06-3.98c-.46-.09-.94-.07-1.41,0-.43.06-1.15,0-1.62-.87-.7-1.32-4.77-9.1-3.08-14.11,1.69-5.01,2.37-7.45,2.98-9.17.61-1.72,1.65-5.99,4.76-5.41,2.33.43,3.43.45,3.89-.09.22-.25.26-.62.14-.94-.05-.15-.07-.38.11-.65.35-.52,1.73-1.73,1.73-3.46s-2.07-2.16-3.46-2.72-8.47-2.64-8.47-2.64c0,0-1.08-2.59-3.22-.78-2.14,1.82-.23,3.02-.23,3.02Z"/>
    <path class="cls-5" d="m109.84,191.97s4.58-2.76,6.65-7.25l6.22,3.11"/>
    <path class="cls-5" d="m116.49,184.72s-.52-.17-1.04-.69"/>
    <path class="cls-5" d="m98,201.78s-.67-.31-1.46-.39"/>
    <path class="cls-5" d="m143.55,191.28c.15-.06,2.43-4.59,1.12-8.29"/>
    <path class="cls-5" d="m136.81,190.94s-.52-3.11-.18-4.77"/>
    <path class="cls-5" d="m145.28,190.94s3.46-2.42,4.67-4.15"/>
    <path class="cls-5" d="m151.42,162.43s1.21-.92,1.72.4"/>
    <path class="cls-5" d="m151.88,165.56s-1.16,5.68,2.82,8.01"/>
    <path class="cls-5" d="m153.31,165.19s-1.22,5.36,3.28,7.43"/>
    <path class="cls-5" d="m164.29,171.23s.43-1.2-1.65-1.2"/>
    <path class="cls-5" d="m165.56,169.35s-1.12-1.25-.57-1.58"/>
    <path class="cls-5" d="m157.05,166.1s.58-.05,1.03,0c.36.04,1.37-.76,1.78-1.1.11-.09.17-.15.17-.15"/>
    <path class="cls-5" d="m158.09,166.1s.56.05,2.13,0"/>
    <path class="cls-5" d="m159.87,166.11s-.01-1.13,0-1.11"/>
    <g>
      <path d="m184.18,111.07c0-.32.26-.57.57-.57h23.18c.32,0,.57.26.57.57s-.26.57-.57.57h-23.18c-.32,0-.57-.26-.57-.57Z"/>
      <path d="m207.83,111.01c0-1.48,1.21-2.81,2.76-3.02.31-.04.6.18.64.49.04.31-.18.6-.49.64-.97.13-1.76.97-1.76,1.88,0,.96.87,1.83,1.91,1.89.32.02.56.29.54.61-.02.32-.29.56-.61.54-1.65-.1-2.98-1.46-2.98-3.04Z"/>
      <path d="m210.61,113.42v-4.97c0-.32.26-.57.57-.57s.57.26.57.57v4.97c0,.32-.26.57-.57.57s-.57-.26-.57-.57Z"/>
      <path d="m217.65,119.51c0-.16.07-.33.21-.44,2.41-2.01,3.79-4.96,3.79-8.1s-1.33-5.96-3.64-7.97c-.24-.21-.26-.57-.06-.81.21-.24.57-.26.81-.06,2.56,2.22,4.03,5.44,4.03,8.83s-1.53,6.75-4.2,8.97c-.24.2-.6.17-.81-.07-.09-.11-.13-.24-.13-.37Z"/>
      <path d="m217.1,104.57c0-.16.06-.31.19-.43.23-.21.6-.19.81.04,1.7,1.88,2.63,4.28,2.63,6.77s-.89,4.78-2.51,6.63c-.21.24-.57.26-.81.05-.24-.21-.26-.57-.05-.81,1.44-1.65,2.23-3.73,2.23-5.88s-.83-4.33-2.34-6c-.1-.11-.15-.25-.15-.38Z"/>
      <path d="m210.98,108.47s0,0,0-.01c0-.32.27-.57.59-.56.04,0,.09,0,.13,0,2.93,0,5.43-2.18,5.82-5.08.04-.31.33-.53.64-.49.31.04.53.33.49.64-.47,3.46-3.46,6.07-6.96,6.07-.05,0-.1,0-.15,0-.31,0-.56-.26-.56-.57Z"/>
      <path d="m210.98,113.64c0-.31.25-.57.56-.57.05,0,.1,0,.15,0,3.5,0,6.49,2.61,6.96,6.07.04.31-.18.6-.49.64-.31.04-.6-.18-.64-.49-.39-2.9-2.89-5.08-5.82-5.08-.04,0-.09,0-.13,0-.32,0-.58-.24-.59-.56,0,0,0,0,0-.01Z"/>
      <path d="m210.92,111.07c0-.32.26-.57.57-.57h8.02c.32,0,.57.26.57.57s-.26.57-.57.57h-8.02c-.32,0-.57-.26-.57-.57Z"/>
      <path d="m211.16,109.74s0-.04,0-.06c.03-.31.31-.54.63-.51.08,0,.15.01.23.02h.04c2.47.02,5.63-.84,6.46-2.28.16-.27.51-.37.78-.21.27.16.37.51.21.78-1.09,1.89-4.66,2.89-7.48,2.86-.01,0-.02,0-.03,0h-.05c-.09,0-.18-.02-.26-.03-.3-.03-.52-.28-.52-.57Z"/>
      <path d="m211.16,112.4c0-.29.22-.54.52-.57.09,0,.18-.02.26-.02h.05s.02,0,.03,0c2.81-.03,6.39.96,7.48,2.86.16.27.06.62-.21.78-.27.16-.62.06-.78-.21-.82-1.44-3.99-2.3-6.45-2.28h-.03c-.08,0-.15.01-.23.02-.31.03-.6-.2-.63-.51,0-.02,0-.04,0-.06Z"/>
      <g>
        <path d="m197.51,110.77c0-.23.14-.45.36-.53.04-.02,4.09-1.66,6.6-6.54.14-.28.49-.39.77-.25.28.14.39.49.25.77-2.72,5.28-7.02,7.01-7.2,7.08-.29.12-.63-.03-.74-.33-.03-.07-.04-.14-.04-.21Z"/>
        <path d="m203.97,102.04c0-.45.13-.9.36-1.28.17-.27.52-.35.79-.18.27.17.35.52.18.79-.16.25-.22.54-.18.83.04.34.21.64.48.85.27.21.6.3.94.26.38-.05.71-.26.92-.58.17-.27.53-.34.79-.17.27.17.34.53.17.79-.39.61-1.03,1-1.74,1.09-.64.08-1.28-.1-1.79-.5-.51-.4-.83-.97-.91-1.62-.01-.1-.02-.19-.02-.29Z"/>
        <path d="m204.25,100.5c0-.12.04-.25.12-.35.19-.25.55-.3.8-.1l3.45,2.67c.25.19.3.55.1.8-.19.25-.55.3-.8.1l-3.45-2.67c-.15-.11-.22-.28-.22-.45Z"/>
        <path d="m203.4,93.18c0-.25.16-.48.42-.55.47-.14.97-.23,1.46-.29,5.13-.62,9.63,2.9,10.25,8.02.05.42.07.84.07,1.26,0,.32-.26.57-.58.57-.31,0-.57-.26-.57-.57h0c0-.37-.02-.74-.06-1.11-.54-4.48-4.49-7.57-8.98-7.02-.43.05-.87.14-1.28.26-.3.09-.62-.09-.71-.39-.02-.05-.02-.11-.02-.16Z"/>
        <path d="m207.46,103.02c0-.12.04-.23.11-.34.7-.96,2.94-1.98,3.98-2.1,1.36-.16,2.72.19,3.82.99.26.19.31.54.13.8-.19.26-.54.31-.8.13-.87-.63-1.94-.91-3.01-.78-.85.1-2.74,1.01-3.19,1.64-.19.26-.54.31-.8.13-.15-.11-.24-.29-.24-.46Z"/>
        <path d="m203.33,93.57c0-.12.04-.24.11-.34.19-.25.55-.31.8-.12,1.06.78,1.88,2.15,2.15,3.57.27,1.44-.12,3.05-1.04,4.31-.19.25-.55.31-.8.12-.25-.19-.31-.55-.12-.8.74-1,1.06-2.28.84-3.41-.21-1.13-.88-2.25-1.7-2.86-.15-.11-.23-.29-.23-.46Z"/>
        <path d="m205.24,94.99c0-.3.23-.55.53-.57,2.39-.17,4.36.57,5.86,2.22,1.05,1.15,1.72,2.54,1.96,4.02.05.31-.17.61-.48.65-.31.05-.61-.17-.65-.48-.2-1.26-.77-2.45-1.67-3.43-1.27-1.39-2.89-1.99-4.94-1.85-.32.02-.59-.21-.61-.53,0-.01,0-.03,0-.04Z"/>
        <path d="m206.06,101.6c0-.13.04-.26.13-.37l3.28-3.9c.2-.24.57-.27.81-.07.24.2.27.57.07.81l-3.28,3.9c-.2.24-.57.27-.81.07-.13-.11-.2-.28-.2-.44Z"/>
        <path d="m205.33,101.14c0-.12.03-.23.11-.33.02-.02,1.67-2.35,1.67-4.31h0c0-.33.26-.58.57-.59.32,0,.57.25.57.57h0c0,2.35-1.8,4.89-1.88,4.99-.18.26-.54.32-.8.13-.16-.11-.24-.29-.24-.47Z"/>
        <path d="m206.58,102.08c0-.14.05-.28.16-.4.09-.09,2.19-2.27,4.55-2.46.32-.03.59.21.62.52.03.32-.21.59-.52.62-1.93.16-3.79,2.09-3.81,2.11-.22.23-.58.24-.81.02-.12-.11-.18-.26-.18-.42Z"/>
      </g>
      <g>
        <path d="m197.52,111.24c0-.06.01-.13.03-.2.11-.3.44-.45.73-.34.18.07,4.49,1.67,7.22,6.96.14.28.03.63-.25.77-.28.14-.63.03-.77-.25-2.51-4.87-6.55-6.39-6.59-6.41-.23-.08-.38-.3-.38-.54Z"/>
        <path d="m203.97,119.84c0-.1,0-.19.02-.29.08-.64.4-1.22.91-1.62.51-.4,1.14-.58,1.79-.5.72.09,1.35.48,1.74,1.09.17.27.1.62-.17.79-.27.17-.62.1-.79-.17-.21-.32-.54-.53-.92-.58-.34-.04-.67.05-.94.26-.27.21-.44.51-.48.85-.04.29.03.58.18.83.17.27.08.62-.18.79-.27.17-.62.08-.79-.18-.24-.38-.36-.83-.36-1.28Z"/>
        <path d="m204.25,121.38c0-.17.08-.34.22-.45l3.45-2.67c.25-.19.61-.15.8.1.19.25.15.61-.1.8l-3.45,2.67c-.25.19-.61.15-.8-.1-.08-.1-.12-.23-.12-.35Z"/>
        <path d="m203.4,128.7c0-.05,0-.1.02-.16.09-.3.4-.48.71-.39.42.12.85.21,1.28.26,4.49.54,8.43-2.54,8.97-7.02.04-.37.07-.74.06-1.1h0c0-.32.25-.58.57-.58.32,0,.58.25.58.57,0,.42-.02.84-.07,1.26-.62,5.12-5.12,8.65-10.25,8.02-.49-.06-.99-.16-1.46-.29-.25-.07-.42-.3-.42-.55Z"/>
        <path d="m207.46,118.86c0-.18.08-.35.24-.46.26-.19.61-.13.8.13.45.62,2.34,1.53,3.19,1.64,1.07.13,2.14-.15,3.01-.78.26-.19.61-.13.8.13.19.26.13.61-.13.8-1.11.81-2.47,1.16-3.82.99-1.04-.13-3.29-1.14-3.98-2.1-.07-.1-.11-.22-.11-.34Z"/>
        <path d="m203.33,128.44c0-.18.08-.35.23-.46.78-.57,1.48-1.8,1.7-2.98.21-1.14-.1-2.41-.84-3.41-.19-.25-.13-.61.12-.8.25-.19.61-.13.8.12.93,1.25,1.32,2.86,1.04,4.31-.28,1.47-1.14,2.95-2.15,3.69-.25.19-.61.13-.8-.12-.08-.1-.11-.22-.11-.34Z"/>
        <path d="m205.24,127.01s0-.03,0-.04c.02-.32.3-.55.61-.53,1.92.14,3.63-.54,4.94-1.97.9-.98,1.47-2.16,1.67-3.43.05-.31.34-.53.65-.48.31.05.53.34.48.65-.23,1.49-.91,2.88-1.96,4.02-1.55,1.7-3.58,2.51-5.86,2.34-.3-.02-.53-.27-.53-.57Z"/>
        <path d="m206.06,120.28c0-.16.07-.33.2-.44.24-.2.6-.17.81.07l3.28,3.9c.2.24.17.6-.07.81-.24.2-.6.17-.81-.07l-3.28-3.9c-.09-.11-.13-.24-.13-.37Z"/>
        <path d="m205.33,120.73c0-.18.08-.35.24-.47.26-.18.62-.13.8.13.08.11,1.88,2.65,1.88,4.98h0c0,.33-.26.59-.57.59-.32,0-.57-.26-.57-.57h0c0-1.98-1.65-4.3-1.67-4.32-.07-.1-.11-.22-.11-.33Z"/>
        <path d="m206.58,119.8c0-.15.06-.3.18-.42.23-.22.59-.21.81.02.02.02,1.89,1.95,3.81,2.11.32.03.55.3.52.62-.03.32-.3.55-.62.52-2.36-.19-4.46-2.37-4.55-2.46-.11-.11-.16-.25-.16-.4Z"/>
      </g>
      <g>
        <path d="m193,108.77h0c0-.62.16-1.82,1.2-3.01,1.53-1.74,3.47-1.44,3.56-1.43.27.05.47.28.48.56v.03c0,.39-.06,2.41-1.21,3.57-1.24,1.25-3.33,1.26-3.42,1.26-.27,0-.51-.19-.56-.46,0-.04-.04-.23-.04-.53Zm4.06-3.31c-.5.05-1.3.26-2,1.05-.69.78-.87,1.56-.91,2.05.58-.08,1.48-.3,2.06-.88.54-.55.78-1.5.85-2.23Z"/>
        <path d="m193,113.19c0-.3.04-.49.04-.53.05-.27.29-.46.56-.46.09,0,2.18.01,3.42,1.26,1.16,1.16,1.21,3.18,1.21,3.57v.03c0,.28-.21.51-.48.56-.08.01-2.02.32-3.56-1.43-1.05-1.19-1.2-2.4-1.2-3.01Zm4.06,3.31c-.08-.72-.31-1.68-.85-2.23-.57-.58-1.48-.79-2.06-.87.04.49.22,1.26.91,2.05.7.79,1.49,1.01,2,1.05Z"/>
      </g>
      <g>
        <path d="m187.56,108.77h0c0-.62.16-1.82,1.2-3.01,1.53-1.74,3.47-1.44,3.56-1.43.27.05.47.28.48.56v.03c0,.39-.06,2.41-1.21,3.57-1.24,1.25-3.33,1.26-3.42,1.26-.27,0-.51-.19-.56-.46,0-.04-.04-.23-.04-.53Zm4.06-3.31c-.5.05-1.3.26-2,1.05-.69.78-.87,1.56-.91,2.05.58-.08,1.48-.3,2.06-.88.54-.55.78-1.5.85-2.23Z"/>
        <path d="m187.56,113.19c0-.3.04-.49.04-.53.05-.27.29-.46.56-.46.09,0,2.18.01,3.42,1.26,1.16,1.16,1.21,3.18,1.21,3.57v.03c0,.28-.21.51-.48.56-.08.01-2.02.32-3.56-1.43-1.05-1.19-1.2-2.4-1.2-3.01Zm4.06,3.31c-.08-.72-.31-1.68-.85-2.23-.57-.58-1.48-.79-2.06-.87.04.49.22,1.26.91,2.05.7.79,1.49,1.01,2,1.05Z"/>
      </g>
    </g>
    <g>
      <path d="m71.04,112.36c0-.32-.26-.57-.57-.57h-23.18c-.32,0-.57.26-.57.57s.26.57.57.57h23.18c.32,0,.57-.26.57-.57Z"/>
      <path d="m47.39,112.3c0-1.48-1.21-2.81-2.76-3.02-.31-.04-.6.18-.64.49-.04.31.18.6.49.64.97.13,1.76.97,1.76,1.88s-.87,1.83-1.91,1.89c-.32.02-.56.29-.54.61.02.32.29.56.61.54,1.65-.1,2.98-1.46,2.98-3.04Z"/>
      <path d="m44.61,114.71v-4.97c0-.32-.26-.57-.57-.57s-.57.26-.57.57v4.97c0,.32.26.57.57.57s.57-.26.57-.57Z"/>
      <path d="m37.57,120.8c0-.16-.07-.33-.21-.44-2.41-2.01-3.79-4.96-3.79-8.1s1.33-5.96,3.64-7.97c.24-.21.26-.57.06-.81-.21-.24-.57-.26-.81-.06-2.56,2.22-4.03,5.44-4.03,8.83s1.53,6.75,4.2,8.97c.24.2.6.17.81-.07.09-.11.13-.24.13-.37Z"/>
      <path d="m38.11,105.86c0-.16-.06-.31-.19-.43-.23-.21-.6-.19-.81.04-1.7,1.88-2.63,4.28-2.63,6.77s.89,4.78,2.51,6.63c.21.24.57.26.81.05.24-.21.26-.57.05-.81-1.44-1.65-2.23-3.73-2.23-5.88,0-2.2.83-4.33,2.34-6,.1-.11.15-.25.15-.38Z"/>
      <path d="m44.24,109.77s0,0,0-.01c0-.32-.27-.57-.59-.56-.04,0-.09,0-.13,0-2.93,0-5.43-2.18-5.82-5.08-.04-.31-.33-.53-.64-.49-.31.04-.53.33-.49.64.47,3.46,3.46,6.07,6.96,6.07.05,0,.1,0,.15,0,.31,0,.56-.26.56-.57Z"/>
      <path d="m44.24,114.94c0-.31-.25-.57-.56-.57-.05,0-.1,0-.15,0-3.5,0-6.49,2.61-6.96,6.07-.04.31.18.6.49.64.31.04.6-.18.64-.49.39-2.9,2.89-5.08,5.82-5.08.04,0,.09,0,.13,0,.32,0,.58-.24.59-.56,0,0,0,0,0-.01Z"/>
      <path d="m44.29,112.36c0-.32-.26-.57-.57-.57h-8.02c-.32,0-.57.26-.57.57s.26.57.57.57h8.02c.32,0,.57-.26.57-.57Z"/>
      <path d="m44.05,111.03s0-.04,0-.06c-.03-.31-.31-.54-.63-.51-.08,0-.15.01-.23.02h-.04c-2.47.02-5.63-.84-6.46-2.28-.16-.27-.51-.37-.78-.21-.27.16-.37.51-.21.78,1.09,1.89,4.66,2.89,7.48,2.86.01,0,.02,0,.03,0h.05c.09,0,.18-.02.26-.03.3-.03.52-.28.52-.57Z"/>
      <path d="m44.05,113.69c0-.29-.22-.54-.52-.57-.09,0-.18-.02-.26-.02h-.05s-.02,0-.03,0c-2.81-.03-6.39.96-7.48,2.86-.16.27-.06.62.21.78.27.16.62.06.78-.21.82-1.44,3.99-2.3,6.45-2.28h.03c.08,0,.15.01.23.02.31.03.6-.2.63-.51,0-.02,0-.04,0-.06Z"/>
      <g>
        <path d="m57.7,112.06c0-.23-.14-.45-.36-.53-.04-.02-4.09-1.66-6.6-6.54-.14-.28-.49-.39-.77-.25-.28.14-.39.49-.25.77,2.72,5.28,7.02,7.01,7.2,7.08.29.12.63-.03.74-.33.03-.07.04-.14.04-.21Z"/>
        <path d="m51.25,103.33c0-.45-.13-.9-.36-1.28-.17-.27-.52-.35-.79-.18-.27.17-.35.52-.18.79.16.25.22.54.18.83-.04.34-.21.64-.48.85-.27.21-.6.3-.94.26-.38-.05-.71-.26-.92-.58-.17-.27-.53-.34-.79-.17-.27.17-.34.53-.17.79.39.61,1.03,1,1.74,1.09.64.08,1.28-.1,1.79-.5.51-.4.83-.97.91-1.62.01-.1.02-.19.02-.29Z"/>
        <path d="m50.97,101.79c0-.12-.04-.25-.12-.35-.19-.25-.55-.3-.8-.1l-3.45,2.67c-.25.19-.3.55-.1.8.19.25.55.3.8.1l3.45-2.67c.15-.11.22-.28.22-.45Z"/>
        <path d="m51.81,94.47c0-.25-.16-.48-.42-.55-.47-.14-.97-.23-1.46-.29-5.13-.62-9.63,2.9-10.25,8.02-.05.42-.07.84-.07,1.26,0,.32.26.57.58.57.31,0,.57-.26.57-.57h0c0-.37.02-.74.06-1.11.54-4.48,4.49-7.57,8.98-7.02.43.05.87.14,1.28.26.3.09.62-.09.71-.39.02-.05.02-.11.02-.16Z"/>
        <path d="m47.75,104.31c0-.12-.04-.23-.11-.34-.7-.96-2.94-1.98-3.98-2.1-1.36-.16-2.72.19-3.82.99-.26.19-.31.54-.13.8.19.26.54.31.8.13.87-.63,1.94-.91,3.01-.78.85.1,2.74,1.01,3.19,1.64.19.26.54.31.8.13.15-.11.24-.29.24-.46Z"/>
        <path d="m51.89,94.86c0-.12-.04-.24-.11-.34-.19-.25-.55-.31-.8-.12-1.06.78-1.88,2.15-2.15,3.57-.27,1.44.12,3.05,1.04,4.31.19.25.55.31.8.12.25-.19.31-.55.12-.8-.74-1-1.06-2.28-.84-3.41.21-1.13.88-2.25,1.7-2.86.15-.11.23-.29.23-.46Z"/>
        <path d="m49.98,96.28c0-.3-.23-.55-.53-.57-2.39-.17-4.36.57-5.86,2.22-1.05,1.15-1.72,2.54-1.96,4.02-.05.31.17.61.48.65.31.05.61-.17.65-.48.2-1.26.77-2.45,1.67-3.43,1.27-1.39,2.89-1.99,4.94-1.85.32.02.59-.21.61-.53,0-.01,0-.03,0-.04Z"/>
        <path d="m49.15,102.89c0-.13-.04-.26-.13-.37l-3.28-3.9c-.2-.24-.57-.27-.81-.07-.24.2-.27.57-.07.81l3.28,3.9c.2.24.57.27.81.07.13-.11.2-.28.2-.44Z"/>
        <path d="m49.88,102.44c0-.12-.03-.23-.11-.33-.02-.02-1.67-2.35-1.67-4.31h0c0-.33-.26-.58-.57-.59-.32,0-.57.25-.57.57h0c0,2.35,1.8,4.89,1.88,4.99.18.26.54.32.8.13.16-.11.24-.29.24-.47Z"/>
        <path d="m48.63,103.37c0-.14-.05-.28-.16-.4-.09-.09-2.19-2.27-4.55-2.46-.32-.03-.59.21-.62.52-.03.32.21.59.52.62,1.93.16,3.79,2.09,3.81,2.11.22.23.58.24.81.02.12-.11.18-.26.18-.42Z"/>
      </g>
      <g>
        <path d="m57.7,112.53c0-.06-.01-.13-.03-.2-.11-.3-.44-.45-.73-.34-.18.07-4.49,1.67-7.22,6.96-.14.28-.03.63.25.77.28.14.63.03.77-.25,2.51-4.87,6.55-6.39,6.59-6.41.23-.08.38-.3.38-.54Z"/>
        <path d="m51.25,121.13c0-.1,0-.19-.02-.29-.08-.64-.4-1.22-.91-1.62-.51-.4-1.14-.58-1.79-.5-.72.09-1.35.48-1.74,1.09-.17.27-.1.62.17.79.27.17.62.1.79-.17.21-.32.54-.53.92-.58.34-.04.67.05.94.26.27.21.44.51.48.85.04.29-.03.58-.18.83-.17.27-.08.62.18.79.27.17.62.08.79-.18.24-.38.36-.83.36-1.28Z"/>
        <path d="m50.97,122.67c0-.17-.08-.34-.22-.45l-3.45-2.67c-.25-.19-.61-.15-.8.1-.19.25-.15.61.1.8l3.45,2.67c.25.19.61.15.8-.1.08-.1.12-.23.12-.35Z"/>
        <path d="m51.81,129.99c0-.05,0-.1-.02-.16-.09-.3-.4-.48-.71-.39-.42.12-.85.21-1.28.26-4.49.54-8.43-2.54-8.97-7.02-.04-.37-.07-.74-.06-1.1h0c0-.32-.25-.58-.57-.58-.32,0-.58.25-.58.57,0,.42.02.84.07,1.26.62,5.12,5.12,8.65,10.25,8.02.49-.06.99-.16,1.46-.29.25-.07.42-.3.42-.55Z"/>
        <path d="m47.75,120.15c0-.18-.08-.35-.24-.46-.26-.19-.61-.13-.8.13-.45.62-2.34,1.53-3.19,1.64-1.07.13-2.14-.15-3.01-.78-.26-.19-.61-.13-.8.13-.19.26-.13.61.13.8,1.11.81,2.47,1.16,3.82.99,1.04-.13,3.29-1.14,3.98-2.1.07-.1.11-.22.11-.34Z"/>
        <path d="m51.89,129.73c0-.18-.08-.35-.23-.46-.78-.57-1.48-1.8-1.7-2.98-.21-1.14.1-2.41.84-3.41.19-.25.13-.61-.12-.8-.25-.19-.61-.13-.8.12-.93,1.25-1.32,2.86-1.04,4.31.28,1.47,1.14,2.95,2.15,3.69.25.19.61.13.8-.12.08-.1.11-.22.11-.34Z"/>
        <path d="m49.98,128.31s0-.03,0-.04c-.02-.32-.3-.55-.61-.53-1.92.14-3.63-.54-4.94-1.97-.9-.98-1.47-2.16-1.67-3.43-.05-.31-.34-.53-.65-.48-.31.05-.53.34-.48.65.23,1.49.91,2.88,1.96,4.02,1.55,1.7,3.58,2.51,5.86,2.34.3-.02.53-.27.53-.57Z"/>
        <path d="m49.15,121.57c0-.16-.07-.33-.2-.44-.24-.2-.6-.17-.81.07l-3.28,3.9c-.2.24-.17.6.07.81.24.2.6.17.81-.07l3.28-3.9c.09-.11.13-.24.13-.37Z"/>
        <path d="m49.88,122.03c0-.18-.08-.35-.24-.47-.26-.18-.62-.13-.8.13-.08.11-1.88,2.65-1.88,4.98h0c0,.33.26.59.57.59.32,0,.57-.26.57-.57h0c0-1.98,1.65-4.3,1.67-4.32.07-.1.11-.22.11-.33Z"/>
        <path d="m48.63,121.09c0-.15-.06-.3-.18-.42-.23-.22-.59-.21-.81.02-.02.02-1.89,1.95-3.81,2.11-.32.03-.55.3-.52.62.03.32.3.55.62.52,2.36-.19,4.46-2.37,4.55-2.46.11-.11.16-.25.16-.4Z"/>
      </g>
      <g>
        <path d="m62.17,110.59c-.05.27-.29.46-.56.46-.09,0-2.18-.01-3.42-1.26-1.16-1.16-1.21-3.18-1.21-3.57v-.03c0-.28.21-.51.48-.56.08-.01,2.02-.32,3.56,1.43,1.05,1.19,1.2,2.4,1.2,3.01h0c0,.3-.04.49-.04.53Zm-3.17-1.61c.58.58,1.48.8,2.06.88-.04-.49-.22-1.27-.91-2.05-.7-.79-1.49-1.01-2-1.05.08.72.31,1.68.85,2.23Z"/>
        <path d="m61.01,117.49c-1.53,1.74-3.47,1.44-3.56,1.43-.27-.05-.47-.28-.48-.56v-.03c0-.39.06-2.41,1.21-3.57,1.24-1.25,3.33-1.26,3.42-1.26.27,0,.51.19.56.46,0,.04.04.23.04.53,0,.61-.16,1.82-1.2,3.01Zm-.86-.76c.69-.78.87-1.56.91-2.05-.58.08-1.48.3-2.06.87-.54.55-.78,1.5-.85,2.23.5-.05,1.3-.26,2-1.05Z"/>
      </g>
      <g>
        <path d="m67.61,110.59c-.05.27-.29.46-.56.46-.09,0-2.18-.01-3.42-1.26-1.16-1.16-1.21-3.18-1.21-3.57v-.03c0-.28.21-.51.48-.56.08-.01,2.02-.32,3.56,1.43,1.05,1.19,1.2,2.4,1.2,3.01h0c0,.3-.04.49-.04.53Zm-3.17-1.61c.58.58,1.48.8,2.06.88-.04-.49-.22-1.27-.91-2.05-.7-.79-1.49-1.01-2-1.05.08.72.31,1.68.85,2.23Z"/>
        <path d="m66.45,117.49c-1.53,1.74-3.47,1.44-3.56,1.43-.27-.05-.47-.28-.48-.56v-.03c0-.39.06-2.41,1.21-3.57,1.24-1.25,3.33-1.26,3.42-1.26.27,0,.51.19.56.46,0,.04.04.23.04.53,0,.61-.16,1.82-1.2,3.01Zm-.86-.76c.69-.78.87-1.56.91-2.05-.58.08-1.48.3-2.06.87-.54.55-.78,1.5-.85,2.23.5-.05,1.3-.26,2-1.05Z"/>
      </g>
    </g>
    <polygon class="cls-4" points="190.32 218.88 65.48 218.88 3.07 110.77 65.48 2.65 190.32 2.65 252.74 110.77 190.32 218.88"/>
  </g>
</svg>